G04*
G04 #@! TF.GenerationSoftware,Altium Limited,Altium Designer,24.4.1 (13)*
G04*
G04 Layer_Physical_Order=2*
G04 Layer_Color=16711680*
%FSLAX25Y25*%
%MOIN*%
G70*
G04*
G04 #@! TF.SameCoordinates,AA9B8025-BE10-49C8-B8BA-64AABDCBB2E5*
G04*
G04*
G04 #@! TF.FilePolarity,Positive*
G04*
G01*
G75*
G04:AMPARAMS|DCode=15|XSize=39.37mil|YSize=118.11mil|CornerRadius=4.92mil|HoleSize=0mil|Usage=FLASHONLY|Rotation=90.000|XOffset=0mil|YOffset=0mil|HoleType=Round|Shape=RoundedRectangle|*
%AMROUNDEDRECTD15*
21,1,0.03937,0.10827,0,0,90.0*
21,1,0.02953,0.11811,0,0,90.0*
1,1,0.00984,0.05413,0.01476*
1,1,0.00984,0.05413,-0.01476*
1,1,0.00984,-0.05413,-0.01476*
1,1,0.00984,-0.05413,0.01476*
%
%ADD15ROUNDEDRECTD15*%
%ADD18C,0.01000*%
%ADD20C,0.02756*%
%ADD21C,0.02362*%
G36*
X90551Y5906D02*
X40758D01*
X32480Y14184D01*
Y17022D01*
X37295D01*
Y20020D01*
Y23017D01*
X32480D01*
Y27319D01*
X43209D01*
X43677Y27412D01*
X44074Y27678D01*
X44171Y27823D01*
X44212Y27863D01*
X44766Y27935D01*
X44796Y27926D01*
X44796Y27926D01*
X45490Y27638D01*
X46242D01*
X46937Y27926D01*
X47468Y28457D01*
X47756Y29152D01*
Y29904D01*
X47468Y30598D01*
X47094Y30973D01*
X47101Y31464D01*
X47152Y31567D01*
X47715Y32131D01*
X48020Y32866D01*
X43430D01*
X43332Y32763D01*
X43234Y32715D01*
X43209Y32720D01*
X32480D01*
Y37319D01*
X43209D01*
X43677Y37412D01*
X44074Y37678D01*
X44244Y37932D01*
X46161D01*
X46976Y38094D01*
X47666Y38555D01*
X48127Y39245D01*
X48289Y40059D01*
X48127Y40873D01*
X47666Y41563D01*
X46976Y42025D01*
X46161Y42186D01*
X44192D01*
X44074Y42362D01*
X43677Y42627D01*
X43209Y42720D01*
X32480D01*
Y46840D01*
X39774Y54134D01*
X86098D01*
X86198Y53634D01*
X86166Y53621D01*
X85553Y53007D01*
X85248Y52272D01*
X89555D01*
X89251Y53007D01*
X88637Y53621D01*
X88605Y53634D01*
X88705Y54134D01*
X90551D01*
Y5906D01*
D02*
G37*
G36*
X43696Y30433D02*
X43726Y30348D01*
X43777Y30273D01*
X43848Y30208D01*
X43939Y30153D01*
X44050Y30108D01*
X44182Y30073D01*
X44334Y30048D01*
X44355Y30046D01*
X44430Y30057D01*
X44532Y30080D01*
X44629Y30109D01*
X44719Y30145D01*
X44804Y30188D01*
X44883Y30237D01*
X44956Y30292D01*
X45023Y30354D01*
Y28701D01*
X44956Y28763D01*
X44883Y28818D01*
X44804Y28867D01*
X44719Y28910D01*
X44629Y28946D01*
X44532Y28975D01*
X44430Y28998D01*
X44355Y29010D01*
X44333Y29008D01*
X44181Y28983D01*
X44049Y28948D01*
X43937Y28903D01*
X43846Y28848D01*
X43775Y28784D01*
X43724Y28709D01*
X43694Y28624D01*
X43683Y28530D01*
X43686Y30528D01*
X43696Y30433D01*
D02*
G37*
%LPC*%
G36*
X89555Y51272D02*
X87902D01*
Y49618D01*
X88637Y49923D01*
X89251Y50536D01*
X89555Y51272D01*
D02*
G37*
G36*
X86902D02*
X85248D01*
X85553Y50536D01*
X86166Y49923D01*
X86902Y49618D01*
Y51272D01*
D02*
G37*
G36*
X73236Y43886D02*
Y42232D01*
X74890D01*
X74585Y42968D01*
X73972Y43581D01*
X73236Y43886D01*
D02*
G37*
G36*
X72236D02*
X71501Y43581D01*
X70887Y42968D01*
X70582Y42232D01*
X72236D01*
Y43886D01*
D02*
G37*
G36*
X74890Y41232D02*
X73236D01*
Y39579D01*
X73972Y39883D01*
X74585Y40497D01*
X74890Y41232D01*
D02*
G37*
G36*
X72236D02*
X70582D01*
X70887Y40497D01*
X71501Y39883D01*
X72236Y39579D01*
Y41232D01*
D02*
G37*
G36*
X46366Y35520D02*
Y33866D01*
X48020D01*
X47715Y34602D01*
X47102Y35215D01*
X46366Y35520D01*
D02*
G37*
G36*
X45366D02*
X44631Y35215D01*
X44017Y34602D01*
X43712Y33866D01*
X45366D01*
Y35520D01*
D02*
G37*
G36*
X80126Y34437D02*
Y32783D01*
X81780D01*
X81475Y33519D01*
X80862Y34133D01*
X80126Y34437D01*
D02*
G37*
G36*
X79126D02*
X78391Y34133D01*
X77777Y33519D01*
X77472Y32783D01*
X79126D01*
Y34437D01*
D02*
G37*
G36*
X81780Y31784D02*
X80126D01*
Y30130D01*
X80862Y30434D01*
X81475Y31048D01*
X81780Y31784D01*
D02*
G37*
G36*
X79126D02*
X77472D01*
X77777Y31048D01*
X78391Y30434D01*
X79126Y30130D01*
Y31784D01*
D02*
G37*
G36*
X50795Y24693D02*
Y23039D01*
X52449D01*
X52144Y23775D01*
X51531Y24388D01*
X50795Y24693D01*
D02*
G37*
G36*
X49795D02*
X49060Y24388D01*
X48446Y23775D01*
X48142Y23039D01*
X49795D01*
Y24693D01*
D02*
G37*
G36*
X43209Y23017D02*
X38295D01*
Y20520D01*
X44730D01*
Y21496D01*
X44614Y22078D01*
X44284Y22572D01*
X43791Y22902D01*
X43209Y23017D01*
D02*
G37*
G36*
X52449Y22039D02*
X50795D01*
Y20386D01*
X51531Y20690D01*
X52144Y21304D01*
X52449Y22039D01*
D02*
G37*
G36*
X49795D02*
X48142D01*
X48446Y21304D01*
X49060Y20690D01*
X49795Y20386D01*
Y22039D01*
D02*
G37*
G36*
X44730Y19520D02*
X38295D01*
Y17022D01*
X43209D01*
X43791Y17138D01*
X44284Y17468D01*
X44614Y17961D01*
X44730Y18543D01*
Y19520D01*
D02*
G37*
%LPD*%
D15*
X37795Y20020D02*
D03*
Y30020D02*
D03*
Y40020D02*
D03*
X98425Y46339D02*
D03*
Y35433D02*
D03*
Y24528D02*
D03*
Y13622D02*
D03*
D18*
X37795Y30020D02*
X38287Y29528D01*
X45866D01*
D20*
Y40059D02*
X46161D01*
X38681D02*
X45866D01*
X38484Y39862D02*
X38681Y40059D01*
X38327Y40020D02*
X38484Y39862D01*
X37795Y40020D02*
X38327D01*
D21*
X79626Y32283D02*
D03*
X72736Y41732D02*
D03*
X87402Y51772D02*
D03*
X45866Y40059D02*
D03*
Y33366D02*
D03*
X50295Y22539D02*
D03*
X45866Y29528D02*
D03*
M02*
