G04*
G04 #@! TF.GenerationSoftware,Altium Limited,Altium Designer,24.4.1 (13)*
G04*
G04 Layer_Color=32896*
%FSLAX25Y25*%
%MOIN*%
G70*
G04*
G04 #@! TF.SameCoordinates,AA9B8025-BE10-49C8-B8BA-64AABDCBB2E5*
G04*
G04*
G04 #@! TF.FilePolarity,Positive*
G04*
G01*
G75*
G36*
X53261Y25559D02*
X53361D01*
Y25526D01*
X53394D01*
Y25493D01*
X53427D01*
Y25426D01*
X53460D01*
Y25193D01*
X53427D01*
Y25127D01*
X53394D01*
Y25094D01*
X53361D01*
Y25060D01*
X53294D01*
Y25027D01*
X53095D01*
Y25060D01*
X52995D01*
Y25094D01*
X52962D01*
Y25127D01*
X52928D01*
Y25193D01*
X52895D01*
Y25426D01*
X52928D01*
Y25493D01*
X52962D01*
Y25526D01*
X52995D01*
Y25559D01*
X53095D01*
Y25592D01*
X53261D01*
Y25559D01*
D02*
G37*
G36*
X63668Y20472D02*
X63269D01*
Y20937D01*
X63236D01*
Y20904D01*
X63203D01*
Y20871D01*
X63169D01*
Y20838D01*
X63136D01*
Y20771D01*
X63103D01*
Y20738D01*
X63036D01*
Y20705D01*
X63003D01*
Y20671D01*
X62970D01*
Y20638D01*
X62937D01*
Y20605D01*
X62870D01*
Y20572D01*
X62804D01*
Y20538D01*
X62737D01*
Y20505D01*
X62671D01*
Y20472D01*
X62571D01*
Y20439D01*
X62438D01*
Y20405D01*
X62205D01*
Y20372D01*
X61972D01*
Y20405D01*
X61740D01*
Y20439D01*
X61640D01*
Y20472D01*
X61540D01*
Y20505D01*
X61474D01*
Y20538D01*
X61407D01*
Y20572D01*
X61341D01*
Y20605D01*
X61307D01*
Y20638D01*
X61274D01*
Y20671D01*
X61208D01*
Y20705D01*
X61174D01*
Y20738D01*
X61141D01*
Y20771D01*
X61108D01*
Y20838D01*
X61075D01*
Y20871D01*
X61041D01*
Y20904D01*
X61008D01*
Y20937D01*
X60975D01*
Y21004D01*
X60942D01*
Y21070D01*
X60908D01*
Y21104D01*
X60875D01*
Y21170D01*
X60842D01*
Y21237D01*
X60809D01*
Y21336D01*
X60775D01*
Y21370D01*
Y21403D01*
Y21436D01*
X60742D01*
Y21536D01*
X60709D01*
Y21702D01*
X60676D01*
Y21935D01*
X60642D01*
Y22733D01*
X60676D01*
Y22966D01*
X60709D01*
Y23132D01*
X60742D01*
Y23232D01*
X60775D01*
Y23331D01*
X60809D01*
Y23431D01*
X60842D01*
Y23498D01*
X60875D01*
Y23564D01*
X60908D01*
Y23631D01*
X60942D01*
Y23697D01*
X60975D01*
Y23730D01*
X61008D01*
Y23764D01*
X61041D01*
Y23830D01*
X61075D01*
Y23863D01*
X61108D01*
Y23897D01*
X61141D01*
Y23930D01*
X61174D01*
Y23963D01*
X61208D01*
Y23996D01*
X61241D01*
Y24030D01*
X61274D01*
Y24063D01*
X61341D01*
Y24096D01*
X61374D01*
Y24129D01*
X61440D01*
Y24163D01*
X61507D01*
Y24196D01*
X61607D01*
Y24229D01*
X61706D01*
Y24262D01*
X61873D01*
Y24296D01*
X62305D01*
Y24262D01*
X62471D01*
Y24229D01*
X62604D01*
Y24196D01*
X62671D01*
Y24163D01*
X62737D01*
Y24129D01*
X62804D01*
Y24096D01*
X62870D01*
Y24063D01*
X62903D01*
Y24030D01*
X62970D01*
Y23996D01*
X63003D01*
Y23963D01*
X63036D01*
Y23930D01*
X63070D01*
Y23897D01*
X63103D01*
Y23863D01*
X63136D01*
Y23830D01*
X63169D01*
Y23797D01*
X63203D01*
Y23730D01*
X63269D01*
Y25792D01*
X63668D01*
Y20472D01*
D02*
G37*
G36*
X55489Y24262D02*
X55522D01*
Y24229D01*
X56187D01*
Y23897D01*
X55522D01*
Y23830D01*
X55489D01*
Y21004D01*
X55455D01*
Y20871D01*
X55422D01*
Y20804D01*
X55389D01*
Y20738D01*
X55356D01*
Y20671D01*
X55322D01*
Y20638D01*
X55289D01*
Y20605D01*
X55256D01*
Y20572D01*
X55223D01*
Y20538D01*
X55189D01*
Y20505D01*
X55123D01*
Y20472D01*
X55090D01*
Y20439D01*
X54990D01*
Y20405D01*
X54790D01*
Y20372D01*
X54558D01*
Y20405D01*
X54325D01*
Y20439D01*
X54225D01*
Y20538D01*
X54258D01*
Y20771D01*
X54491D01*
Y20738D01*
X54691D01*
Y20771D01*
X54824D01*
Y20804D01*
X54890D01*
Y20838D01*
X54923D01*
Y20871D01*
X54957D01*
Y20904D01*
X54990D01*
Y20971D01*
X55023D01*
Y21037D01*
X55056D01*
Y21203D01*
X55090D01*
Y23863D01*
X55056D01*
Y23897D01*
X54292D01*
Y24196D01*
X54325D01*
Y24229D01*
X55090D01*
Y25193D01*
X55489D01*
Y24262D01*
D02*
G37*
G36*
X50667D02*
X50867D01*
Y24229D01*
X50967D01*
Y24196D01*
X51066D01*
Y24163D01*
X51133D01*
Y24129D01*
X51199D01*
Y24096D01*
X51266D01*
Y24063D01*
X51332D01*
Y24030D01*
X51366D01*
Y23996D01*
X51432D01*
Y23963D01*
X51465D01*
Y23930D01*
X51499D01*
Y23897D01*
X51532D01*
Y23863D01*
X51565D01*
Y23830D01*
X51598D01*
Y23797D01*
X51632D01*
Y23764D01*
X51665D01*
Y23697D01*
X51698D01*
Y23664D01*
X51731D01*
Y23631D01*
X51765D01*
Y23564D01*
X51798D01*
Y23498D01*
X51831D01*
Y23431D01*
X51864D01*
Y23365D01*
X51898D01*
Y23298D01*
X51931D01*
Y23198D01*
X51964D01*
Y23065D01*
X51997D01*
Y22932D01*
X52031D01*
Y22700D01*
X52064D01*
Y21968D01*
X52031D01*
Y21735D01*
X51997D01*
Y21602D01*
X51964D01*
Y21469D01*
X51931D01*
Y21403D01*
X51898D01*
Y21303D01*
X51864D01*
Y21237D01*
X51831D01*
Y21170D01*
X51798D01*
Y21104D01*
X51765D01*
Y21070D01*
X51731D01*
Y21004D01*
X51698D01*
Y20971D01*
X51665D01*
Y20937D01*
X51632D01*
Y20871D01*
X51598D01*
Y20838D01*
X51565D01*
Y20804D01*
X51532D01*
Y20771D01*
X51499D01*
Y20738D01*
X51465D01*
Y20705D01*
X51399D01*
Y20671D01*
X51366D01*
Y20638D01*
X51332D01*
Y20605D01*
X51266D01*
Y20572D01*
X51199D01*
Y20538D01*
X51133D01*
Y20505D01*
X51066D01*
Y20472D01*
X50967D01*
Y20439D01*
X50834D01*
Y20405D01*
X50568D01*
Y20372D01*
X50335D01*
Y20405D01*
X50102D01*
Y20439D01*
X49969D01*
Y20472D01*
X49869D01*
Y20505D01*
X49803D01*
Y20538D01*
X49736D01*
Y20572D01*
X49670D01*
Y20605D01*
X49603D01*
Y20638D01*
X49570D01*
Y20671D01*
X49504D01*
Y20705D01*
X49470D01*
Y20738D01*
X49437D01*
Y20771D01*
X49404D01*
Y20804D01*
X49371D01*
Y20838D01*
X49337D01*
Y20871D01*
X49304D01*
Y20904D01*
X49271D01*
Y20937D01*
X49238D01*
Y20971D01*
X49204D01*
Y21037D01*
X49171D01*
Y21104D01*
X49138D01*
Y21137D01*
X49105D01*
Y21237D01*
X49071D01*
Y21303D01*
X49038D01*
Y21436D01*
X49005D01*
Y21602D01*
X49038D01*
Y21636D01*
X49371D01*
Y21602D01*
X49404D01*
Y21503D01*
X49437D01*
Y21370D01*
X49470D01*
Y21270D01*
X49504D01*
Y21237D01*
X49537D01*
Y21170D01*
X49570D01*
Y21137D01*
X49603D01*
Y21070D01*
X49637D01*
Y21037D01*
X49670D01*
Y21004D01*
X49703D01*
Y20971D01*
X49770D01*
Y20937D01*
X49803D01*
Y20904D01*
X49869D01*
Y20871D01*
X49936D01*
Y20838D01*
X50002D01*
Y20804D01*
X50102D01*
Y20771D01*
X50235D01*
Y20738D01*
X50667D01*
Y20771D01*
X50800D01*
Y20804D01*
X50900D01*
Y20838D01*
X51000D01*
Y20871D01*
X51033D01*
Y20904D01*
X51100D01*
Y20937D01*
X51133D01*
Y20971D01*
X51199D01*
Y21004D01*
X51233D01*
Y21037D01*
X51266D01*
Y21070D01*
X51299D01*
Y21137D01*
X51332D01*
Y21170D01*
X51366D01*
Y21203D01*
X51399D01*
Y21270D01*
X51432D01*
Y21336D01*
X51465D01*
Y21403D01*
X51499D01*
Y21469D01*
X51532D01*
Y21569D01*
X51565D01*
Y21702D01*
X51598D01*
Y21868D01*
X51632D01*
Y22799D01*
X51598D01*
Y22966D01*
X51565D01*
Y23099D01*
X51532D01*
Y23198D01*
X51499D01*
Y23265D01*
X51465D01*
Y23331D01*
X51432D01*
Y23398D01*
X51399D01*
Y23464D01*
X51366D01*
Y23498D01*
X51332D01*
Y23531D01*
X51299D01*
Y23597D01*
X51266D01*
Y23631D01*
X51233D01*
Y23664D01*
X51199D01*
Y23697D01*
X51133D01*
Y23730D01*
X51100D01*
Y23764D01*
X51066D01*
Y23797D01*
X51000D01*
Y23830D01*
X50933D01*
Y23863D01*
X50834D01*
Y23897D01*
X50701D01*
Y23930D01*
X50235D01*
Y23897D01*
X50102D01*
Y23863D01*
X50002D01*
Y23830D01*
X49936D01*
Y23797D01*
X49869D01*
Y23764D01*
X49836D01*
Y23730D01*
X49770D01*
Y23697D01*
X49736D01*
Y23664D01*
X49703D01*
Y23631D01*
X49670D01*
Y23597D01*
X49637D01*
Y23564D01*
X49603D01*
Y23498D01*
X49570D01*
Y23464D01*
X49537D01*
Y23398D01*
X49504D01*
Y23331D01*
X49470D01*
Y23232D01*
X49437D01*
Y23065D01*
X49404D01*
Y22966D01*
X49005D01*
Y23132D01*
X49038D01*
Y23298D01*
X49071D01*
Y23398D01*
X49105D01*
Y23498D01*
X49138D01*
Y23564D01*
X49171D01*
Y23631D01*
X49204D01*
Y23664D01*
X49238D01*
Y23730D01*
X49271D01*
Y23764D01*
X49304D01*
Y23797D01*
X49337D01*
Y23830D01*
X49371D01*
Y23863D01*
X49404D01*
Y23897D01*
X49437D01*
Y23930D01*
X49470D01*
Y23963D01*
X49504D01*
Y23996D01*
X49537D01*
Y24030D01*
X49603D01*
Y24063D01*
X49637D01*
Y24096D01*
X49703D01*
Y24129D01*
X49770D01*
Y24163D01*
X49836D01*
Y24196D01*
X49936D01*
Y24229D01*
X50036D01*
Y24262D01*
X50235D01*
Y24296D01*
X50667D01*
Y24262D01*
D02*
G37*
G36*
X68722D02*
X68855D01*
Y24229D01*
X68955D01*
Y24196D01*
X69055D01*
Y24163D01*
X69121D01*
Y24129D01*
X69154D01*
Y24096D01*
X69221D01*
Y24063D01*
X69254D01*
Y24030D01*
X69287D01*
Y23996D01*
X69321D01*
Y23963D01*
X69354D01*
Y23930D01*
X69387D01*
Y23897D01*
X69420D01*
Y23863D01*
X69454D01*
Y23797D01*
X69487D01*
Y23764D01*
X69520D01*
Y23697D01*
X69587D01*
Y24229D01*
X69986D01*
Y20472D01*
X69587D01*
Y23032D01*
X69553D01*
Y23165D01*
X69520D01*
Y23232D01*
X69487D01*
Y23298D01*
X69454D01*
Y23365D01*
X69420D01*
Y23431D01*
X69387D01*
Y23464D01*
X69354D01*
Y23531D01*
X69321D01*
Y23564D01*
X69287D01*
Y23597D01*
X69254D01*
Y23631D01*
X69221D01*
Y23664D01*
X69188D01*
Y23697D01*
X69121D01*
Y23730D01*
X69088D01*
Y23764D01*
X69021D01*
Y23797D01*
X68955D01*
Y23830D01*
X68855D01*
Y23863D01*
X68689D01*
Y23897D01*
X68356D01*
Y23863D01*
X68257D01*
Y24096D01*
X68223D01*
Y24229D01*
X68257D01*
Y24262D01*
X68356D01*
Y24296D01*
X68722D01*
Y24262D01*
D02*
G37*
G36*
X53394Y20472D02*
X52962D01*
Y24196D01*
X52995D01*
Y24229D01*
X53394D01*
Y20472D01*
D02*
G37*
G36*
X66428Y24262D02*
X66627D01*
Y24229D01*
X66727D01*
Y24196D01*
X66827D01*
Y24163D01*
X66893D01*
Y24129D01*
X66960D01*
Y24096D01*
X67026D01*
Y24063D01*
X67093D01*
Y24030D01*
X67126D01*
Y23996D01*
X67193D01*
Y23963D01*
X67226D01*
Y23930D01*
X67259D01*
Y23897D01*
X67292D01*
Y23863D01*
X67326D01*
Y23830D01*
X67359D01*
Y23797D01*
X67392D01*
Y23764D01*
X67425D01*
Y23730D01*
X67459D01*
Y23697D01*
X67492D01*
Y23664D01*
X67525D01*
Y23597D01*
X67558D01*
Y23564D01*
X67592D01*
Y23498D01*
X67625D01*
Y23431D01*
X67658D01*
Y23398D01*
X67691D01*
Y23298D01*
X67725D01*
Y23232D01*
X67758D01*
Y23132D01*
X67791D01*
Y23032D01*
X67824D01*
Y22899D01*
X67858D01*
Y22666D01*
X67891D01*
Y22001D01*
X67858D01*
Y21769D01*
X67824D01*
Y21636D01*
X67791D01*
Y21536D01*
X67758D01*
Y21436D01*
X67725D01*
Y21370D01*
X67691D01*
Y21270D01*
X67658D01*
Y21237D01*
X67625D01*
Y21170D01*
X67592D01*
Y21104D01*
X67558D01*
Y21070D01*
X67525D01*
Y21004D01*
X67492D01*
Y20971D01*
X67459D01*
Y20937D01*
X67425D01*
Y20904D01*
X67392D01*
Y20871D01*
X67359D01*
Y20838D01*
X67326D01*
Y20804D01*
X67292D01*
Y20771D01*
X67259D01*
Y20738D01*
X67226D01*
Y20705D01*
X67193D01*
Y20671D01*
X67126D01*
Y20638D01*
X67093D01*
Y20605D01*
X67026D01*
Y20572D01*
X66960D01*
Y20538D01*
X66893D01*
Y20505D01*
X66827D01*
Y20472D01*
X66727D01*
Y20439D01*
X66594D01*
Y20405D01*
X66328D01*
Y20372D01*
X66095D01*
Y20405D01*
X65829D01*
Y20439D01*
X65696D01*
Y20472D01*
X65597D01*
Y20505D01*
X65530D01*
Y20538D01*
X65464D01*
Y20572D01*
X65397D01*
Y20605D01*
X65331D01*
Y20638D01*
X65264D01*
Y20671D01*
X65231D01*
Y20705D01*
X65198D01*
Y20738D01*
X65131D01*
Y20771D01*
X65098D01*
Y20804D01*
X65065D01*
Y20838D01*
X65031D01*
Y20871D01*
X64998D01*
Y20904D01*
X64965D01*
Y20971D01*
X64932D01*
Y21004D01*
X64898D01*
Y21037D01*
X64865D01*
Y21104D01*
X64832D01*
Y21137D01*
X64799D01*
Y21203D01*
X64765D01*
Y21270D01*
X64732D01*
Y21336D01*
X64699D01*
Y21436D01*
X64666D01*
Y21503D01*
X64632D01*
Y21602D01*
X64599D01*
Y21735D01*
X64566D01*
Y21935D01*
X64533D01*
Y22733D01*
X64566D01*
Y22799D01*
Y22833D01*
Y22932D01*
X64599D01*
Y23065D01*
X64632D01*
Y23165D01*
X64666D01*
Y23265D01*
X64699D01*
Y23331D01*
X64732D01*
Y23398D01*
X64765D01*
Y23464D01*
X64799D01*
Y23531D01*
X64832D01*
Y23564D01*
X64865D01*
Y23631D01*
X64898D01*
Y23664D01*
X64932D01*
Y23697D01*
X64965D01*
Y23764D01*
X64998D01*
Y23797D01*
X65031D01*
Y23830D01*
X65065D01*
Y23863D01*
X65098D01*
Y23897D01*
X65131D01*
Y23930D01*
X65198D01*
Y23963D01*
X65231D01*
Y23996D01*
X65264D01*
Y24030D01*
X65331D01*
Y24063D01*
X65364D01*
Y24096D01*
X65430D01*
Y24129D01*
X65497D01*
Y24163D01*
X65563D01*
Y24196D01*
X65663D01*
Y24229D01*
X65796D01*
Y24262D01*
X65996D01*
Y24296D01*
X66428D01*
Y24262D01*
D02*
G37*
G36*
X58481D02*
X58681D01*
Y24229D01*
X58780D01*
Y24196D01*
X58880D01*
Y24163D01*
X58980D01*
Y24129D01*
X59046D01*
Y24096D01*
X59113D01*
Y24063D01*
X59146D01*
Y24030D01*
X59213D01*
Y23996D01*
X59246D01*
Y23963D01*
X59279D01*
Y23930D01*
X59346D01*
Y23897D01*
X59379D01*
Y23863D01*
X59412D01*
Y23830D01*
X59445D01*
Y23797D01*
X59479D01*
Y23764D01*
X59512D01*
Y23697D01*
X59545D01*
Y23664D01*
X59578D01*
Y23631D01*
X59612D01*
Y23564D01*
X59645D01*
Y23531D01*
X59678D01*
Y23464D01*
X59711D01*
Y23398D01*
X59745D01*
Y23331D01*
X59778D01*
Y23265D01*
X59811D01*
Y23165D01*
X59844D01*
Y23065D01*
X59878D01*
Y22932D01*
X59911D01*
Y22733D01*
X59944D01*
Y22700D01*
Y22666D01*
Y21935D01*
X59911D01*
Y21735D01*
X59878D01*
Y21602D01*
X59844D01*
Y21503D01*
X59811D01*
Y21403D01*
X59778D01*
Y21336D01*
X59745D01*
Y21270D01*
X59711D01*
Y21203D01*
X59678D01*
Y21137D01*
X59645D01*
Y21104D01*
X59612D01*
Y21037D01*
X59578D01*
Y21004D01*
X59545D01*
Y20971D01*
X59512D01*
Y20937D01*
X59479D01*
Y20871D01*
X59445D01*
Y20838D01*
X59412D01*
Y20804D01*
X59379D01*
Y20771D01*
X59312D01*
Y20738D01*
X59279D01*
Y20705D01*
X59246D01*
Y20671D01*
X59179D01*
Y20638D01*
X59146D01*
Y20605D01*
X59080D01*
Y20572D01*
X59013D01*
Y20538D01*
X58947D01*
Y20505D01*
X58880D01*
Y20472D01*
X58780D01*
Y20439D01*
X58647D01*
Y20405D01*
X58381D01*
Y20372D01*
X58149D01*
Y20405D01*
X57883D01*
Y20439D01*
X57750D01*
Y20472D01*
X57650D01*
Y20505D01*
X57583D01*
Y20538D01*
X57517D01*
Y20572D01*
X57450D01*
Y20605D01*
X57384D01*
Y20638D01*
X57351D01*
Y20671D01*
X57284D01*
Y20705D01*
X57251D01*
Y20738D01*
X57218D01*
Y20771D01*
X57184D01*
Y20804D01*
X57118D01*
Y20838D01*
X57085D01*
Y20904D01*
X57051D01*
Y20937D01*
X57018D01*
Y20971D01*
X56985D01*
Y21004D01*
X56952D01*
Y21070D01*
X56918D01*
Y21104D01*
X56885D01*
Y21170D01*
X56852D01*
Y21237D01*
X56819D01*
Y21303D01*
X56785D01*
Y21370D01*
X56752D01*
Y21436D01*
X56719D01*
Y21536D01*
X56686D01*
Y21636D01*
X56652D01*
Y21802D01*
X56619D01*
Y22001D01*
X56586D01*
Y22633D01*
X56619D01*
Y22866D01*
X56652D01*
Y23032D01*
X56686D01*
Y23132D01*
X56719D01*
Y23232D01*
X56752D01*
Y23331D01*
X56785D01*
Y23398D01*
X56819D01*
Y23464D01*
X56852D01*
Y23498D01*
X56885D01*
Y23564D01*
X56918D01*
Y23597D01*
X56952D01*
Y23664D01*
X56985D01*
Y23697D01*
X57018D01*
Y23730D01*
X57051D01*
Y23764D01*
X57085D01*
Y23830D01*
X57118D01*
Y23863D01*
X57151D01*
Y23897D01*
X57218D01*
Y23930D01*
X57251D01*
Y23963D01*
X57284D01*
Y23996D01*
X57317D01*
Y24030D01*
X57384D01*
Y24063D01*
X57450D01*
Y24096D01*
X57484D01*
Y24129D01*
X57550D01*
Y24163D01*
X57650D01*
Y24196D01*
X57750D01*
Y24229D01*
X57849D01*
Y24262D01*
X58049D01*
Y24296D01*
X58481D01*
Y24262D01*
D02*
G37*
G36*
X47143D02*
X47342D01*
Y24229D01*
X47442D01*
Y24196D01*
X47542D01*
Y24163D01*
X47642D01*
Y24129D01*
X47708D01*
Y24096D01*
X47741D01*
Y24063D01*
X47808D01*
Y24030D01*
X47841D01*
Y23996D01*
X47908D01*
Y23963D01*
X47941D01*
Y23930D01*
X47974D01*
Y23897D01*
X48007D01*
Y23863D01*
X48041D01*
Y23797D01*
X48074D01*
Y23764D01*
X48107D01*
Y23697D01*
X48140D01*
Y23664D01*
X48174D01*
Y23564D01*
X48207D01*
Y23431D01*
X48240D01*
Y23065D01*
X48207D01*
Y22966D01*
X48174D01*
Y22866D01*
X48140D01*
Y22799D01*
X48107D01*
Y22766D01*
X48074D01*
Y22733D01*
X48041D01*
Y22666D01*
X48007D01*
Y22633D01*
X47941D01*
Y22600D01*
X47908D01*
Y22567D01*
X47874D01*
Y22533D01*
X47808D01*
Y22500D01*
X47775D01*
Y22467D01*
X47708D01*
Y22434D01*
X47642D01*
Y22400D01*
X47542D01*
Y22367D01*
X47475D01*
Y22334D01*
X47376D01*
Y22301D01*
X47243D01*
Y22267D01*
X47110D01*
Y22234D01*
X46977D01*
Y22201D01*
X46844D01*
Y22168D01*
X46711D01*
Y22134D01*
X46578D01*
Y22101D01*
X46511D01*
Y22068D01*
X46411D01*
Y22035D01*
X46345D01*
Y22001D01*
X46278D01*
Y21968D01*
X46212D01*
Y21935D01*
X46179D01*
Y21902D01*
X46145D01*
Y21868D01*
X46112D01*
Y21835D01*
X46079D01*
Y21802D01*
X46046D01*
Y21769D01*
X46012D01*
Y21735D01*
X45979D01*
Y21636D01*
X45946D01*
Y21536D01*
X45913D01*
Y21303D01*
X45946D01*
Y21203D01*
X45979D01*
Y21137D01*
X46012D01*
Y21070D01*
X46046D01*
Y21037D01*
X46079D01*
Y21004D01*
X46112D01*
Y20971D01*
X46145D01*
Y20937D01*
X46212D01*
Y20904D01*
X46245D01*
Y20871D01*
X46312D01*
Y20838D01*
X46378D01*
Y20804D01*
X46478D01*
Y20771D01*
X46644D01*
Y20738D01*
X47143D01*
Y20771D01*
X47309D01*
Y20804D01*
X47409D01*
Y20838D01*
X47475D01*
Y20871D01*
X47542D01*
Y20904D01*
X47608D01*
Y20937D01*
X47642D01*
Y20971D01*
X47708D01*
Y21004D01*
X47741D01*
Y21037D01*
X47775D01*
Y21104D01*
X47808D01*
Y21137D01*
X47841D01*
Y21203D01*
X47874D01*
Y21270D01*
X47908D01*
Y21370D01*
X47941D01*
Y21503D01*
X48373D01*
Y21370D01*
X48340D01*
Y21203D01*
X48307D01*
Y21137D01*
X48273D01*
Y21037D01*
X48240D01*
Y21004D01*
X48207D01*
Y20937D01*
X48174D01*
Y20904D01*
X48140D01*
Y20871D01*
X48107D01*
Y20838D01*
X48074D01*
Y20804D01*
X48041D01*
Y20771D01*
X48007D01*
Y20738D01*
X47974D01*
Y20705D01*
X47941D01*
Y20671D01*
X47874D01*
Y20638D01*
X47841D01*
Y20605D01*
X47775D01*
Y20572D01*
X47708D01*
Y20538D01*
X47642D01*
Y20505D01*
X47575D01*
Y20472D01*
X47442D01*
Y20439D01*
X47309D01*
Y20405D01*
X47010D01*
Y20372D01*
X46744D01*
Y20405D01*
X46478D01*
Y20439D01*
X46312D01*
Y20472D01*
X46212D01*
Y20505D01*
X46145D01*
Y20538D01*
X46079D01*
Y20572D01*
X46012D01*
Y20605D01*
X45946D01*
Y20638D01*
X45913D01*
Y20671D01*
X45846D01*
Y20705D01*
X45813D01*
Y20738D01*
X45780D01*
Y20771D01*
X45746D01*
Y20804D01*
X45713D01*
Y20838D01*
X45680D01*
Y20871D01*
X45647D01*
Y20937D01*
X45613D01*
Y21004D01*
X45580D01*
Y21070D01*
X45547D01*
Y21170D01*
X45514D01*
Y21702D01*
X45547D01*
Y21802D01*
X45580D01*
Y21868D01*
X45613D01*
Y21935D01*
X45647D01*
Y21968D01*
X45680D01*
Y22035D01*
X45713D01*
Y22068D01*
X45746D01*
Y22101D01*
X45780D01*
Y22134D01*
X45846D01*
Y22168D01*
X45879D01*
Y22201D01*
X45913D01*
Y22234D01*
X45979D01*
Y22267D01*
X46046D01*
Y22301D01*
X46112D01*
Y22334D01*
X46179D01*
Y22367D01*
X46245D01*
Y22400D01*
X46345D01*
Y22434D01*
X46445D01*
Y22467D01*
X46578D01*
Y22500D01*
X46677D01*
Y22533D01*
X46810D01*
Y22567D01*
X46943D01*
Y22600D01*
X47076D01*
Y22633D01*
X47176D01*
Y22666D01*
X47276D01*
Y22700D01*
X47376D01*
Y22733D01*
X47442D01*
Y22766D01*
X47509D01*
Y22799D01*
X47575D01*
Y22833D01*
X47608D01*
Y22866D01*
X47675D01*
Y22932D01*
X47708D01*
Y22966D01*
X47741D01*
Y22999D01*
X47775D01*
Y23099D01*
X47808D01*
Y23464D01*
X47775D01*
Y23531D01*
X47741D01*
Y23597D01*
X47708D01*
Y23631D01*
X47675D01*
Y23664D01*
X47642D01*
Y23697D01*
X47608D01*
Y23730D01*
X47575D01*
Y23764D01*
X47542D01*
Y23797D01*
X47475D01*
Y23830D01*
X47409D01*
Y23863D01*
X47309D01*
Y23897D01*
X47176D01*
Y23930D01*
X46677D01*
Y23897D01*
X46511D01*
Y23863D01*
X46445D01*
Y23830D01*
X46378D01*
Y23797D01*
X46312D01*
Y23764D01*
X46245D01*
Y23730D01*
X46212D01*
Y23697D01*
X46179D01*
Y23664D01*
X46145D01*
Y23631D01*
X46112D01*
Y23597D01*
X46079D01*
Y23564D01*
X46046D01*
Y23498D01*
X46012D01*
Y23431D01*
X45979D01*
Y23365D01*
X45946D01*
Y23165D01*
X45514D01*
Y23331D01*
X45547D01*
Y23498D01*
X45580D01*
Y23597D01*
X45613D01*
Y23664D01*
X45647D01*
Y23730D01*
X45680D01*
Y23764D01*
X45713D01*
Y23797D01*
X45746D01*
Y23863D01*
X45780D01*
Y23897D01*
X45813D01*
Y23930D01*
X45846D01*
Y23963D01*
X45913D01*
Y23996D01*
X45946D01*
Y24030D01*
X45979D01*
Y24063D01*
X46046D01*
Y24096D01*
X46112D01*
Y24129D01*
X46179D01*
Y24163D01*
X46245D01*
Y24196D01*
X46345D01*
Y24229D01*
X46445D01*
Y24262D01*
X46677D01*
Y24296D01*
X47143D01*
Y24262D01*
D02*
G37*
G36*
X69986Y13822D02*
X69587D01*
Y16382D01*
X69553D01*
Y16482D01*
X69520D01*
Y16582D01*
X69487D01*
Y16648D01*
X69454D01*
Y16681D01*
X69420D01*
Y16748D01*
X69387D01*
Y16814D01*
X69354D01*
Y16848D01*
X69321D01*
Y16881D01*
X69287D01*
Y16914D01*
X69254D01*
Y16947D01*
X69221D01*
Y16981D01*
X69188D01*
Y17014D01*
X69154D01*
Y17047D01*
X69121D01*
Y17080D01*
X69088D01*
Y17114D01*
X69021D01*
Y17147D01*
X68988D01*
Y17180D01*
X68922D01*
Y17213D01*
X68822D01*
Y17247D01*
X68722D01*
Y17280D01*
X68489D01*
Y17313D01*
X68390D01*
Y17280D01*
X68157D01*
Y17247D01*
X68024D01*
Y17213D01*
X67957D01*
Y17180D01*
X67924D01*
Y17147D01*
X67858D01*
Y17114D01*
X67824D01*
Y17080D01*
X67791D01*
Y17047D01*
X67758D01*
Y17014D01*
X67725D01*
Y16947D01*
X67691D01*
Y16881D01*
X67658D01*
Y16814D01*
X67625D01*
Y16681D01*
X67592D01*
Y16515D01*
X67558D01*
Y13822D01*
X67159D01*
Y15218D01*
Y15252D01*
Y16681D01*
X67193D01*
Y16848D01*
X67226D01*
Y16947D01*
X67259D01*
Y17047D01*
X67292D01*
Y17114D01*
X67326D01*
Y17180D01*
X67359D01*
Y17213D01*
X67392D01*
Y17280D01*
X67425D01*
Y17313D01*
X67459D01*
Y17346D01*
X67492D01*
Y17380D01*
X67525D01*
Y17413D01*
X67558D01*
Y17446D01*
X67592D01*
Y17479D01*
X67658D01*
Y17513D01*
X67725D01*
Y17546D01*
X67791D01*
Y17579D01*
X67891D01*
Y17612D01*
X68024D01*
Y17646D01*
X68656D01*
Y17612D01*
X68789D01*
Y17579D01*
X68855D01*
Y17546D01*
X68955D01*
Y17513D01*
X69021D01*
Y17479D01*
X69088D01*
Y17446D01*
X69121D01*
Y17413D01*
X69188D01*
Y17380D01*
X69221D01*
Y17346D01*
X69254D01*
Y17313D01*
X69287D01*
Y17280D01*
X69321D01*
Y17247D01*
X69354D01*
Y17213D01*
X69387D01*
Y17180D01*
X69420D01*
Y17147D01*
X69454D01*
Y17114D01*
X69487D01*
Y17047D01*
X69520D01*
Y17014D01*
X69587D01*
Y19175D01*
X69986D01*
Y13822D01*
D02*
G37*
G36*
X65098Y17612D02*
X65231D01*
Y17579D01*
X65331D01*
Y17546D01*
X65430D01*
Y17513D01*
X65497D01*
Y17479D01*
X65563D01*
Y17446D01*
X65630D01*
Y17413D01*
X65663D01*
Y17380D01*
X65730D01*
Y17346D01*
X65763D01*
Y17313D01*
X65796D01*
Y17280D01*
X65863D01*
Y17247D01*
X65896D01*
Y17213D01*
X65929D01*
Y17147D01*
X65962D01*
Y17114D01*
X65996D01*
Y17080D01*
X66029D01*
Y17014D01*
X66062D01*
Y16981D01*
X66095D01*
Y16914D01*
X66129D01*
Y16814D01*
X66162D01*
Y16648D01*
X66195D01*
Y16582D01*
X66162D01*
Y16548D01*
X65763D01*
Y16681D01*
X65730D01*
Y16781D01*
X65696D01*
Y16848D01*
X65663D01*
Y16914D01*
X65630D01*
Y16947D01*
X65597D01*
Y16981D01*
X65563D01*
Y17014D01*
X65530D01*
Y17047D01*
X65497D01*
Y17080D01*
X65464D01*
Y17114D01*
X65397D01*
Y17147D01*
X65364D01*
Y17180D01*
X65297D01*
Y17213D01*
X65231D01*
Y17247D01*
X65131D01*
Y17280D01*
X64932D01*
Y17313D01*
X64566D01*
Y17280D01*
X64400D01*
Y17247D01*
X64300D01*
Y17213D01*
X64200D01*
Y17180D01*
X64167D01*
Y17147D01*
X64100D01*
Y17114D01*
X64067D01*
Y17080D01*
X64034D01*
Y17047D01*
X64001D01*
Y17014D01*
X63967D01*
Y16981D01*
X63934D01*
Y16947D01*
X63901D01*
Y16881D01*
X63868D01*
Y16814D01*
X63834D01*
Y16715D01*
X63801D01*
Y16083D01*
X63768D01*
Y16050D01*
X63801D01*
Y16016D01*
X64865D01*
Y15983D01*
X65098D01*
Y15950D01*
X65264D01*
Y15917D01*
X65397D01*
Y15883D01*
X65497D01*
Y15850D01*
X65563D01*
Y15817D01*
X65630D01*
Y15784D01*
X65696D01*
Y15750D01*
X65763D01*
Y15717D01*
X65796D01*
Y15684D01*
X65863D01*
Y15651D01*
X65896D01*
Y15617D01*
X65929D01*
Y15584D01*
X65962D01*
Y15551D01*
X65996D01*
Y15518D01*
X66029D01*
Y15484D01*
X66062D01*
Y15451D01*
X66095D01*
Y15385D01*
X66129D01*
Y15351D01*
X66162D01*
Y15285D01*
X66195D01*
Y15185D01*
X66228D01*
Y15085D01*
X66262D01*
Y14553D01*
X66228D01*
Y14454D01*
X66195D01*
Y14387D01*
X66162D01*
Y14321D01*
X66129D01*
Y14254D01*
X66095D01*
Y14221D01*
X66062D01*
Y14154D01*
X66029D01*
Y14121D01*
X65996D01*
Y14088D01*
X65962D01*
Y14055D01*
X65929D01*
Y14021D01*
X65863D01*
Y13988D01*
X65829D01*
Y13955D01*
X65796D01*
Y13922D01*
X65730D01*
Y13888D01*
X65663D01*
Y13855D01*
X65563D01*
Y13822D01*
X65464D01*
Y13789D01*
X65331D01*
Y13755D01*
X64799D01*
Y13789D01*
X64632D01*
Y13822D01*
X64533D01*
Y13855D01*
X64433D01*
Y13888D01*
X64333D01*
Y13922D01*
X64267D01*
Y13955D01*
X64200D01*
Y13988D01*
X64167D01*
Y14021D01*
X64100D01*
Y14055D01*
X64067D01*
Y14088D01*
X64001D01*
Y14121D01*
X63967D01*
Y14154D01*
X63934D01*
Y14188D01*
X63901D01*
Y14221D01*
X63868D01*
Y14254D01*
X63834D01*
Y14287D01*
X63801D01*
Y14321D01*
X63768D01*
Y14021D01*
X63735D01*
Y13888D01*
X63701D01*
Y13822D01*
X63269D01*
Y13955D01*
X63302D01*
Y14088D01*
X63336D01*
Y14321D01*
X63369D01*
Y16648D01*
X63402D01*
Y16814D01*
X63435D01*
Y16914D01*
X63469D01*
Y17014D01*
X63502D01*
Y17080D01*
X63535D01*
Y17114D01*
X63568D01*
Y17180D01*
X63602D01*
Y17213D01*
X63635D01*
Y17247D01*
X63668D01*
Y17280D01*
X63701D01*
Y17313D01*
X63735D01*
Y17346D01*
X63768D01*
Y17380D01*
X63801D01*
Y17413D01*
X63868D01*
Y17446D01*
X63901D01*
Y17479D01*
X63967D01*
Y17513D01*
X64034D01*
Y17546D01*
X64134D01*
Y17579D01*
X64233D01*
Y17612D01*
X64366D01*
Y17646D01*
X65098D01*
Y17612D01*
D02*
G37*
G36*
X49603D02*
X49770D01*
Y17579D01*
X49869D01*
Y17546D01*
X49936D01*
Y17513D01*
X50036D01*
Y17479D01*
X50102D01*
Y17446D01*
X50135D01*
Y17413D01*
X50202D01*
Y17380D01*
X50235D01*
Y17346D01*
X50302D01*
Y17313D01*
X50335D01*
Y17280D01*
X50368D01*
Y17247D01*
X50401D01*
Y17213D01*
X50435D01*
Y17180D01*
X50468D01*
Y17147D01*
X50501D01*
Y17114D01*
X50534D01*
Y17047D01*
X50568D01*
Y17014D01*
X50601D01*
Y16947D01*
X50634D01*
Y16848D01*
X50667D01*
Y16748D01*
X50701D01*
Y16548D01*
X50302D01*
Y16582D01*
X50268D01*
Y16748D01*
X50235D01*
Y16814D01*
X50202D01*
Y16881D01*
X50169D01*
Y16914D01*
X50135D01*
Y16981D01*
X50102D01*
Y17014D01*
X50069D01*
Y17047D01*
X50036D01*
Y17080D01*
X49969D01*
Y17114D01*
X49936D01*
Y17147D01*
X49869D01*
Y17180D01*
X49803D01*
Y17213D01*
X49736D01*
Y17247D01*
X49637D01*
Y17280D01*
X49470D01*
Y17313D01*
X49071D01*
Y17280D01*
X48905D01*
Y17247D01*
X48805D01*
Y17213D01*
X48739D01*
Y17180D01*
X48672D01*
Y17147D01*
X48606D01*
Y17114D01*
X48573D01*
Y17080D01*
X48539D01*
Y17047D01*
X48506D01*
Y17014D01*
X48473D01*
Y16947D01*
X48440D01*
Y16914D01*
X48406D01*
Y16848D01*
X48373D01*
Y16781D01*
X48340D01*
Y16648D01*
X48307D01*
Y16016D01*
X49371D01*
Y15983D01*
X49637D01*
Y15950D01*
X49803D01*
Y15917D01*
X49903D01*
Y15883D01*
X50002D01*
Y15850D01*
X50069D01*
Y15817D01*
X50169D01*
Y15784D01*
X50235D01*
Y15750D01*
X50268D01*
Y15717D01*
X50335D01*
Y15684D01*
X50368D01*
Y15651D01*
X50401D01*
Y15617D01*
X50468D01*
Y15584D01*
X50501D01*
Y15551D01*
X50534D01*
Y15518D01*
X50568D01*
Y15451D01*
X50601D01*
Y15418D01*
X50634D01*
Y15351D01*
X50667D01*
Y15318D01*
X50701D01*
Y15252D01*
X50734D01*
Y15152D01*
X50767D01*
Y14986D01*
X50800D01*
Y14653D01*
X50767D01*
Y14520D01*
X50734D01*
Y14420D01*
X50701D01*
Y14354D01*
X50667D01*
Y14287D01*
X50634D01*
Y14221D01*
X50601D01*
Y14188D01*
X50568D01*
Y14154D01*
X50534D01*
Y14121D01*
X50501D01*
Y14088D01*
X50468D01*
Y14055D01*
X50435D01*
Y14021D01*
X50401D01*
Y13988D01*
X50368D01*
Y13955D01*
X50302D01*
Y13922D01*
X50235D01*
Y13888D01*
X50169D01*
Y13855D01*
X50102D01*
Y13822D01*
X50002D01*
Y13789D01*
X49836D01*
Y13755D01*
X49304D01*
Y13789D01*
X49138D01*
Y13822D01*
X49038D01*
Y13855D01*
X48938D01*
Y13888D01*
X48872D01*
Y13922D01*
X48805D01*
Y13955D01*
X48739D01*
Y13988D01*
X48672D01*
Y14021D01*
X48639D01*
Y14055D01*
X48573D01*
Y14088D01*
X48539D01*
Y14121D01*
X48506D01*
Y14154D01*
X48473D01*
Y14188D01*
X48440D01*
Y14221D01*
X48406D01*
Y14254D01*
X48373D01*
Y14287D01*
X48340D01*
Y14321D01*
X48307D01*
Y14188D01*
X48273D01*
Y13955D01*
X48240D01*
Y13855D01*
X48207D01*
Y13822D01*
X47775D01*
Y13922D01*
X47808D01*
Y14021D01*
X47841D01*
Y14188D01*
X47874D01*
Y16515D01*
X47908D01*
Y16781D01*
X47941D01*
Y16881D01*
X47974D01*
Y16981D01*
X48007D01*
Y17047D01*
X48041D01*
Y17114D01*
X48074D01*
Y17147D01*
X48107D01*
Y17213D01*
X48140D01*
Y17247D01*
X48174D01*
Y17280D01*
X48207D01*
Y17313D01*
X48240D01*
Y17346D01*
X48273D01*
Y17380D01*
X48340D01*
Y17413D01*
X48373D01*
Y17446D01*
X48440D01*
Y17479D01*
X48473D01*
Y17513D01*
X48539D01*
Y17546D01*
X48639D01*
Y17579D01*
X48739D01*
Y17612D01*
X48872D01*
Y17646D01*
X49603D01*
Y17612D01*
D02*
G37*
G36*
X56287Y17513D02*
X56253D01*
Y17380D01*
X56220D01*
Y17280D01*
X56187D01*
Y17147D01*
X56154D01*
Y17047D01*
X56120D01*
Y16914D01*
X56087D01*
Y16814D01*
X56054D01*
Y16681D01*
X56021D01*
Y16582D01*
X55987D01*
Y16482D01*
X55954D01*
Y16349D01*
X55921D01*
Y16249D01*
X55888D01*
Y16116D01*
X55854D01*
Y16016D01*
X55821D01*
Y15883D01*
X55788D01*
Y15784D01*
X55755D01*
Y15651D01*
X55721D01*
Y15551D01*
X55688D01*
Y15418D01*
X55655D01*
Y15318D01*
X55622D01*
Y15218D01*
X55588D01*
Y15085D01*
X55555D01*
Y14986D01*
X55522D01*
Y14853D01*
X55489D01*
Y14753D01*
X55455D01*
Y14620D01*
X55422D01*
Y14520D01*
X55389D01*
Y14387D01*
X55356D01*
Y14287D01*
X55322D01*
Y14188D01*
X55289D01*
Y14055D01*
X55256D01*
Y13955D01*
X55223D01*
Y13855D01*
X55189D01*
Y13822D01*
X54857D01*
Y13855D01*
X54824D01*
Y13955D01*
X54790D01*
Y14055D01*
X54757D01*
Y14154D01*
X54724D01*
Y14254D01*
X54691D01*
Y14354D01*
X54657D01*
Y14454D01*
X54624D01*
Y14587D01*
X54591D01*
Y14686D01*
X54558D01*
Y14786D01*
X54524D01*
Y14886D01*
X54491D01*
Y14986D01*
X54458D01*
Y15019D01*
Y15052D01*
Y15085D01*
X54425D01*
Y15185D01*
X54391D01*
Y15318D01*
X54358D01*
Y15418D01*
X54325D01*
Y15518D01*
X54292D01*
Y15617D01*
X54258D01*
Y15717D01*
X54225D01*
Y15817D01*
X54192D01*
Y15917D01*
X54159D01*
Y16016D01*
X54125D01*
Y16149D01*
X54092D01*
Y16249D01*
X54059D01*
Y16349D01*
X54026D01*
Y16449D01*
X53992D01*
Y16548D01*
X53959D01*
Y16648D01*
X53926D01*
Y16748D01*
X53893D01*
Y16914D01*
X53859D01*
Y16947D01*
X53826D01*
Y16814D01*
X53793D01*
Y16715D01*
X53760D01*
Y16615D01*
X53726D01*
Y16515D01*
X53693D01*
Y16382D01*
X53660D01*
Y16282D01*
X53627D01*
Y16183D01*
X53593D01*
Y16083D01*
X53560D01*
Y15983D01*
X53527D01*
Y15883D01*
X53494D01*
Y15784D01*
X53460D01*
Y15684D01*
X53427D01*
Y15584D01*
X53394D01*
Y15484D01*
X53361D01*
Y15385D01*
X53327D01*
Y15285D01*
X53294D01*
Y15152D01*
X53261D01*
Y15052D01*
X53228D01*
Y14952D01*
X53194D01*
Y14853D01*
X53161D01*
Y14753D01*
X53128D01*
Y14653D01*
X53095D01*
Y14553D01*
X53061D01*
Y14454D01*
X53028D01*
Y14354D01*
X52995D01*
Y14254D01*
X52962D01*
Y14154D01*
X52928D01*
Y14055D01*
X52895D01*
Y13922D01*
X52862D01*
Y13855D01*
X52829D01*
Y13822D01*
X52496D01*
Y13855D01*
X52463D01*
Y13955D01*
X52430D01*
Y14055D01*
X52396D01*
Y14188D01*
X52363D01*
Y14287D01*
X52330D01*
Y14420D01*
X52297D01*
Y14520D01*
X52263D01*
Y14653D01*
X52230D01*
Y14753D01*
X52197D01*
Y14853D01*
X52164D01*
Y14986D01*
X52130D01*
Y15085D01*
X52097D01*
Y15218D01*
X52064D01*
Y15318D01*
X52031D01*
Y15418D01*
X51997D01*
Y15551D01*
X51964D01*
Y15651D01*
X51931D01*
Y15784D01*
X51898D01*
Y15883D01*
X51864D01*
Y16016D01*
X51831D01*
Y16116D01*
X51798D01*
Y16249D01*
X51765D01*
Y16349D01*
X51731D01*
Y16482D01*
X51698D01*
Y16582D01*
X51665D01*
Y16681D01*
X51632D01*
Y16814D01*
X51598D01*
Y16914D01*
X51565D01*
Y17047D01*
X51532D01*
Y17147D01*
X51499D01*
Y17280D01*
X51465D01*
Y17380D01*
X51432D01*
Y17479D01*
X51399D01*
Y17579D01*
X51831D01*
Y17513D01*
X51864D01*
Y17380D01*
X51898D01*
Y17247D01*
X51931D01*
Y17114D01*
X51964D01*
Y16981D01*
X51997D01*
Y16881D01*
X52031D01*
Y16748D01*
X52064D01*
Y16615D01*
X52097D01*
Y16515D01*
X52130D01*
Y16382D01*
X52164D01*
Y16249D01*
X52197D01*
Y16116D01*
X52230D01*
Y16016D01*
X52263D01*
Y15883D01*
X52297D01*
Y15750D01*
X52330D01*
Y15617D01*
X52363D01*
Y15518D01*
X52396D01*
Y15385D01*
X52430D01*
Y15252D01*
X52463D01*
Y15119D01*
X52496D01*
Y15019D01*
X52529D01*
Y14886D01*
X52563D01*
Y14753D01*
X52596D01*
Y14620D01*
X52629D01*
Y14454D01*
X52662D01*
Y14387D01*
X52696D01*
Y14487D01*
X52729D01*
Y14620D01*
X52762D01*
Y14753D01*
X52795D01*
Y14853D01*
X52829D01*
Y14986D01*
X52862D01*
Y15085D01*
X52895D01*
Y15185D01*
X52928D01*
Y15285D01*
X52962D01*
Y15385D01*
X52995D01*
Y15518D01*
X53028D01*
Y15617D01*
X53061D01*
Y15717D01*
X53095D01*
Y15817D01*
X53128D01*
Y15917D01*
X53161D01*
Y16050D01*
X53194D01*
Y16149D01*
X53228D01*
Y16249D01*
X53261D01*
Y16349D01*
X53294D01*
Y16449D01*
X53327D01*
Y16582D01*
X53361D01*
Y16681D01*
X53394D01*
Y16781D01*
X53427D01*
Y16881D01*
X53460D01*
Y16981D01*
X53494D01*
Y17114D01*
X53527D01*
Y17213D01*
X53560D01*
Y17313D01*
X53593D01*
Y17413D01*
X53627D01*
Y17513D01*
X53660D01*
Y17579D01*
X54026D01*
Y17513D01*
X54059D01*
Y17413D01*
X54092D01*
Y17313D01*
X54125D01*
Y17213D01*
X54159D01*
Y17114D01*
X54192D01*
Y16981D01*
X54225D01*
Y16881D01*
X54258D01*
Y16781D01*
X54292D01*
Y16681D01*
X54325D01*
Y16582D01*
X54358D01*
Y16449D01*
X54391D01*
Y16349D01*
X54425D01*
Y16249D01*
X54458D01*
Y16149D01*
X54491D01*
Y16050D01*
X54524D01*
Y15917D01*
X54558D01*
Y15817D01*
X54591D01*
Y15717D01*
X54624D01*
Y15617D01*
X54657D01*
Y15518D01*
X54691D01*
Y15385D01*
X54724D01*
Y15285D01*
X54757D01*
Y15185D01*
X54790D01*
Y15085D01*
X54824D01*
Y14986D01*
X54857D01*
Y14886D01*
X54890D01*
Y14753D01*
X54923D01*
Y14653D01*
X54957D01*
Y14520D01*
X54990D01*
Y14420D01*
X55023D01*
Y14520D01*
X55056D01*
Y14720D01*
X55090D01*
Y14819D01*
X55123D01*
Y14952D01*
X55156D01*
Y15085D01*
X55189D01*
Y15185D01*
X55223D01*
Y15318D01*
X55256D01*
Y15418D01*
X55289D01*
Y15551D01*
X55322D01*
Y15684D01*
X55356D01*
Y15784D01*
X55389D01*
Y15917D01*
X55422D01*
Y16050D01*
X55455D01*
Y16149D01*
X55489D01*
Y16282D01*
X55522D01*
Y16415D01*
X55555D01*
Y16515D01*
X55588D01*
Y16648D01*
X55622D01*
Y16781D01*
X55655D01*
Y16881D01*
X55688D01*
Y17014D01*
X55721D01*
Y17114D01*
X55755D01*
Y17247D01*
X55788D01*
Y17380D01*
X55821D01*
Y17479D01*
X55854D01*
Y17579D01*
X56287D01*
Y17513D01*
D02*
G37*
G36*
X43352Y17612D02*
X43485D01*
Y17579D01*
X43585D01*
Y17546D01*
X43652D01*
Y17513D01*
X43751D01*
Y17479D01*
X43785D01*
Y17446D01*
X43851D01*
Y17413D01*
X43918D01*
Y17380D01*
X43951D01*
Y17346D01*
X43984D01*
Y17313D01*
X44017D01*
Y17280D01*
X44084D01*
Y17247D01*
X44117D01*
Y17213D01*
X44150D01*
Y17180D01*
X44184D01*
Y17147D01*
X44217D01*
Y17080D01*
X44250D01*
Y17047D01*
X44283D01*
Y17014D01*
X44317D01*
Y16947D01*
X44350D01*
Y16914D01*
X44383D01*
Y16848D01*
X44416D01*
Y16781D01*
X44450D01*
Y16715D01*
X44483D01*
Y16648D01*
X44516D01*
Y16582D01*
X44549D01*
Y16482D01*
X44583D01*
Y16382D01*
X44616D01*
Y16216D01*
X44649D01*
Y15983D01*
X44682D01*
Y15351D01*
X44649D01*
Y15152D01*
X44616D01*
Y14986D01*
X44583D01*
Y14886D01*
X44549D01*
Y14819D01*
X44516D01*
Y14720D01*
X44483D01*
Y14653D01*
X44450D01*
Y14587D01*
X44416D01*
Y14553D01*
X44383D01*
Y14487D01*
X44350D01*
Y14420D01*
X44317D01*
Y14387D01*
X44283D01*
Y14354D01*
X44250D01*
Y14321D01*
X44217D01*
Y14254D01*
X44184D01*
Y14221D01*
X44150D01*
Y14188D01*
X44117D01*
Y14154D01*
X44051D01*
Y14121D01*
X44017D01*
Y14088D01*
X43984D01*
Y14055D01*
X43918D01*
Y14021D01*
X43884D01*
Y13988D01*
X43818D01*
Y13955D01*
X43751D01*
Y13922D01*
X43685D01*
Y13888D01*
X43618D01*
Y13855D01*
X43519D01*
Y13822D01*
X43419D01*
Y13789D01*
X43253D01*
Y13755D01*
X42687D01*
Y13789D01*
X42521D01*
Y13822D01*
X42421D01*
Y13855D01*
X42322D01*
Y13888D01*
X42255D01*
Y13922D01*
X42189D01*
Y13955D01*
X42122D01*
Y13988D01*
X42056D01*
Y14021D01*
X42022D01*
Y14055D01*
X41989D01*
Y14088D01*
X41923D01*
Y14121D01*
X41889D01*
Y14154D01*
X41856D01*
Y14188D01*
X41823D01*
Y14221D01*
X41790D01*
Y14254D01*
X41756D01*
Y14287D01*
X41723D01*
Y14354D01*
X41690D01*
Y14387D01*
X41657D01*
Y14420D01*
X41690D01*
Y14454D01*
X41723D01*
Y14487D01*
X41756D01*
Y14520D01*
X41790D01*
Y14553D01*
X41856D01*
Y14587D01*
X41889D01*
Y14620D01*
X41923D01*
Y14587D01*
X41956D01*
Y14553D01*
X41989D01*
Y14520D01*
X42022D01*
Y14487D01*
X42056D01*
Y14454D01*
X42089D01*
Y14420D01*
X42122D01*
Y14387D01*
X42155D01*
Y14354D01*
X42189D01*
Y14321D01*
X42255D01*
Y14287D01*
X42288D01*
Y14254D01*
X42355D01*
Y14221D01*
X42421D01*
Y14188D01*
X42521D01*
Y14154D01*
X42654D01*
Y14121D01*
X43253D01*
Y14154D01*
X43386D01*
Y14188D01*
X43452D01*
Y14221D01*
X43519D01*
Y14254D01*
X43585D01*
Y14287D01*
X43652D01*
Y14321D01*
X43685D01*
Y14354D01*
X43718D01*
Y14387D01*
X43751D01*
Y14420D01*
X43818D01*
Y14454D01*
X43851D01*
Y14520D01*
X43884D01*
Y14553D01*
X43918D01*
Y14587D01*
X43951D01*
Y14620D01*
X43984D01*
Y14686D01*
X44017D01*
Y14720D01*
X44051D01*
Y14786D01*
X44084D01*
Y14853D01*
X44117D01*
Y14919D01*
X44150D01*
Y15019D01*
X44184D01*
Y15119D01*
X44217D01*
Y15252D01*
X44250D01*
Y15684D01*
X41590D01*
Y15717D01*
X41557D01*
Y16016D01*
X41590D01*
Y16349D01*
X41623D01*
Y16515D01*
X41657D01*
Y16648D01*
X41690D01*
Y16748D01*
X41723D01*
Y16814D01*
X41756D01*
Y16881D01*
X41790D01*
Y16947D01*
X41823D01*
Y17014D01*
X41856D01*
Y17047D01*
X41889D01*
Y17114D01*
X41923D01*
Y17147D01*
X41956D01*
Y17180D01*
X41989D01*
Y17213D01*
X42022D01*
Y17280D01*
X42089D01*
Y17313D01*
X42122D01*
Y17346D01*
X42155D01*
Y17380D01*
X42189D01*
Y17413D01*
X42222D01*
Y17446D01*
X42288D01*
Y17479D01*
X42355D01*
Y17513D01*
X42421D01*
Y17546D01*
X42488D01*
Y17579D01*
X42588D01*
Y17612D01*
X42721D01*
Y17646D01*
X43352D01*
Y17612D01*
D02*
G37*
G36*
X61075D02*
X61208D01*
Y17579D01*
X61274D01*
Y17546D01*
X61341D01*
Y17513D01*
X61407D01*
Y17479D01*
X61474D01*
Y17446D01*
X61507D01*
Y17413D01*
X61540D01*
Y17380D01*
X61573D01*
Y17346D01*
X61607D01*
Y17313D01*
X61640D01*
Y17280D01*
X61673D01*
Y17247D01*
X61706D01*
Y17213D01*
X61740D01*
Y17147D01*
X61773D01*
Y17114D01*
X61806D01*
Y17047D01*
X61839D01*
Y17579D01*
X62272D01*
Y15351D01*
Y15318D01*
Y13822D01*
X61839D01*
Y16482D01*
X61806D01*
Y16582D01*
X61773D01*
Y16648D01*
X61740D01*
Y16715D01*
X61706D01*
Y16781D01*
X61673D01*
Y16814D01*
X61640D01*
Y16881D01*
X61607D01*
Y16914D01*
X61573D01*
Y16947D01*
X61540D01*
Y16981D01*
X61507D01*
Y17014D01*
X61474D01*
Y17047D01*
X61440D01*
Y17080D01*
X61374D01*
Y17114D01*
X61341D01*
Y17147D01*
X61274D01*
Y17180D01*
X61174D01*
Y17213D01*
X61075D01*
Y17247D01*
X60509D01*
Y17612D01*
X60543D01*
Y17646D01*
X61075D01*
Y17612D01*
D02*
G37*
G36*
X45613D02*
X45713D01*
Y17579D01*
X45813D01*
Y17546D01*
X45879D01*
Y17513D01*
X45913D01*
Y17479D01*
X45979D01*
Y17446D01*
X46012D01*
Y17413D01*
X46079D01*
Y17380D01*
X46112D01*
Y17346D01*
X46145D01*
Y17313D01*
X46179D01*
Y17247D01*
X46212D01*
Y17213D01*
X46245D01*
Y17180D01*
X46278D01*
Y17114D01*
X46312D01*
Y17080D01*
X46345D01*
Y17047D01*
X46378D01*
Y17579D01*
X46777D01*
Y13822D01*
X46378D01*
Y16415D01*
X46345D01*
Y16515D01*
X46312D01*
Y16615D01*
X46278D01*
Y16681D01*
X46245D01*
Y16748D01*
X46212D01*
Y16781D01*
X46179D01*
Y16848D01*
X46145D01*
Y16881D01*
X46112D01*
Y16914D01*
X46079D01*
Y16981D01*
X46012D01*
Y17014D01*
X45979D01*
Y17047D01*
X45946D01*
Y17080D01*
X45913D01*
Y17114D01*
X45846D01*
Y17147D01*
X45780D01*
Y17180D01*
X45713D01*
Y17213D01*
X45580D01*
Y17247D01*
X45048D01*
Y17413D01*
X45015D01*
Y17612D01*
X45048D01*
Y17646D01*
X45613D01*
Y17612D01*
D02*
G37*
G36*
X57484Y17080D02*
X57517D01*
Y17147D01*
X57550D01*
Y17180D01*
X57583D01*
Y17213D01*
X57617D01*
Y17247D01*
X57650D01*
Y17280D01*
X57683D01*
Y17313D01*
X57716D01*
Y17346D01*
X57750D01*
Y17380D01*
X57783D01*
Y17413D01*
X57849D01*
Y17446D01*
X57883D01*
Y17479D01*
X57949D01*
Y17513D01*
X58016D01*
Y17546D01*
X58082D01*
Y17579D01*
X58182D01*
Y17612D01*
X58315D01*
Y17646D01*
X58947D01*
Y17612D01*
X59080D01*
Y17579D01*
X59179D01*
Y17546D01*
X59246D01*
Y17513D01*
X59312D01*
Y17479D01*
X59379D01*
Y17446D01*
X59412D01*
Y17413D01*
X59445D01*
Y17380D01*
X59512D01*
Y17346D01*
X59545D01*
Y17313D01*
X59578D01*
Y17280D01*
X59612D01*
Y17247D01*
X59645D01*
Y17213D01*
X59678D01*
Y17147D01*
X59711D01*
Y17114D01*
X59745D01*
Y17047D01*
X59778D01*
Y17014D01*
X59811D01*
Y16947D01*
X59844D01*
Y16881D01*
X59878D01*
Y16814D01*
X59911D01*
Y16748D01*
X59944D01*
Y16648D01*
X59977D01*
Y16548D01*
X60011D01*
Y16415D01*
X60044D01*
Y16249D01*
X60077D01*
Y15883D01*
X60110D01*
Y15518D01*
X60077D01*
Y15185D01*
X60044D01*
Y14986D01*
X60011D01*
Y14886D01*
X59977D01*
Y14753D01*
X59944D01*
Y14686D01*
X59911D01*
Y14587D01*
X59878D01*
Y14520D01*
X59844D01*
Y14487D01*
X59811D01*
Y14420D01*
X59778D01*
Y14354D01*
X59745D01*
Y14321D01*
X59711D01*
Y14254D01*
X59678D01*
Y14221D01*
X59645D01*
Y14188D01*
X59612D01*
Y14154D01*
X59578D01*
Y14121D01*
X59545D01*
Y14088D01*
X59512D01*
Y14055D01*
X59479D01*
Y14021D01*
X59445D01*
Y13988D01*
X59379D01*
Y13955D01*
X59346D01*
Y13922D01*
X59279D01*
Y13888D01*
X59213D01*
Y13855D01*
X59146D01*
Y13822D01*
X59046D01*
Y13789D01*
X58880D01*
Y13755D01*
X58381D01*
Y13789D01*
X58215D01*
Y13822D01*
X58115D01*
Y13855D01*
X58016D01*
Y13888D01*
X57949D01*
Y13922D01*
X57883D01*
Y13955D01*
X57816D01*
Y13988D01*
X57783D01*
Y14021D01*
X57750D01*
Y14055D01*
X57683D01*
Y14088D01*
X57650D01*
Y14121D01*
X57617D01*
Y14154D01*
X57583D01*
Y14188D01*
X57550D01*
Y14254D01*
X57517D01*
Y14287D01*
X57484D01*
Y14088D01*
X57450D01*
Y13822D01*
X57085D01*
Y17080D01*
Y17114D01*
Y19175D01*
X57484D01*
Y17080D01*
D02*
G37*
G36*
X54458Y12891D02*
X54524D01*
Y12858D01*
X54558D01*
Y12824D01*
X54591D01*
Y12725D01*
X54624D01*
Y12592D01*
X54591D01*
Y12492D01*
X54558D01*
Y12459D01*
X54524D01*
Y12425D01*
X54458D01*
Y12392D01*
X54192D01*
Y12425D01*
X54125D01*
Y12459D01*
X54092D01*
Y12525D01*
X54059D01*
Y12625D01*
X54026D01*
Y12725D01*
X54059D01*
Y12791D01*
X54092D01*
Y12858D01*
X54125D01*
Y12891D01*
X54192D01*
Y12924D01*
X54458D01*
Y12891D01*
D02*
G37*
G36*
X60809Y8868D02*
X60775D01*
Y8635D01*
X60742D01*
Y8535D01*
X60709D01*
Y8435D01*
X60676D01*
Y8336D01*
X60642D01*
Y8269D01*
X60609D01*
Y8236D01*
X60576D01*
Y8169D01*
X60543D01*
Y8136D01*
X60509D01*
Y8103D01*
X60476D01*
Y8036D01*
X60443D01*
Y8003D01*
X60376D01*
Y7970D01*
X60343D01*
Y7937D01*
X60310D01*
Y7903D01*
X60243D01*
Y7870D01*
X60177D01*
Y7837D01*
X60110D01*
Y7804D01*
X60011D01*
Y7770D01*
X59844D01*
Y7737D01*
X59246D01*
Y7770D01*
X59080D01*
Y7804D01*
X58980D01*
Y7837D01*
X58880D01*
Y7870D01*
X58814D01*
Y7903D01*
X58747D01*
Y7937D01*
X58714D01*
Y7970D01*
X58647D01*
Y8003D01*
X58614D01*
Y8036D01*
X58581D01*
Y8070D01*
X58548D01*
Y8103D01*
X58514D01*
Y8136D01*
X58481D01*
Y8169D01*
X58448D01*
Y8203D01*
X58415D01*
Y8236D01*
X58381D01*
Y7837D01*
X58348D01*
Y7804D01*
X57949D01*
Y11228D01*
Y11262D01*
Y11561D01*
X58381D01*
Y8801D01*
X58415D01*
Y8701D01*
X58448D01*
Y8635D01*
X58481D01*
Y8568D01*
X58514D01*
Y8535D01*
X58548D01*
Y8502D01*
X58581D01*
Y8435D01*
X58614D01*
Y8402D01*
X58647D01*
Y8369D01*
X58681D01*
Y8336D01*
X58747D01*
Y8302D01*
X58780D01*
Y8269D01*
X58847D01*
Y8236D01*
X58913D01*
Y8203D01*
X58980D01*
Y8169D01*
X59080D01*
Y8136D01*
X59213D01*
Y8103D01*
X59745D01*
Y8136D01*
X59878D01*
Y8169D01*
X59944D01*
Y8203D01*
X60011D01*
Y8236D01*
X60044D01*
Y8269D01*
X60110D01*
Y8302D01*
X60144D01*
Y8336D01*
X60177D01*
Y8402D01*
X60210D01*
Y8435D01*
X60243D01*
Y8502D01*
X60277D01*
Y8568D01*
X60310D01*
Y8668D01*
X60343D01*
Y8801D01*
X60376D01*
Y11528D01*
X60410D01*
Y11561D01*
X60809D01*
Y8868D01*
D02*
G37*
G36*
X56652Y11561D02*
X57351D01*
Y11228D01*
X56652D01*
Y8469D01*
X56619D01*
Y8302D01*
X56586D01*
Y8169D01*
X56553D01*
Y8103D01*
X56519D01*
Y8036D01*
X56486D01*
Y8003D01*
X56453D01*
Y7970D01*
X56420D01*
Y7937D01*
X56386D01*
Y7903D01*
X56353D01*
Y7870D01*
X56320D01*
Y7837D01*
X56253D01*
Y7804D01*
X56187D01*
Y7770D01*
X56054D01*
Y7737D01*
X55522D01*
Y7770D01*
X55389D01*
Y8103D01*
X55422D01*
Y8136D01*
X55489D01*
Y8103D01*
X55921D01*
Y8136D01*
X55987D01*
Y8169D01*
X56054D01*
Y8203D01*
X56087D01*
Y8236D01*
X56120D01*
Y8269D01*
X56154D01*
Y8336D01*
X56187D01*
Y8435D01*
X56220D01*
Y11228D01*
X55455D01*
Y11561D01*
X56220D01*
Y12525D01*
X56652D01*
Y11561D01*
D02*
G37*
G36*
X86557Y24300D02*
X86723D01*
Y24266D01*
X86823D01*
Y24233D01*
X86889D01*
Y24200D01*
X86956D01*
Y24167D01*
X87022D01*
Y24134D01*
X87089D01*
Y24100D01*
X87122D01*
Y24067D01*
X87189D01*
Y24034D01*
X87222D01*
Y24001D01*
X87255D01*
Y23967D01*
X87288D01*
Y23934D01*
X87322D01*
Y23901D01*
X87355D01*
Y23867D01*
X87388D01*
Y23834D01*
X87421D01*
Y23801D01*
X87454D01*
Y23768D01*
X87488D01*
Y23734D01*
X87521D01*
Y23701D01*
X87554D01*
Y23635D01*
X87587D01*
Y23602D01*
X87621D01*
Y23535D01*
X87654D01*
Y23469D01*
X87687D01*
Y23402D01*
X87721D01*
Y23302D01*
X87754D01*
Y23202D01*
X87787D01*
Y23036D01*
X87820D01*
Y9204D01*
X87787D01*
Y9038D01*
X87754D01*
Y8905D01*
X87721D01*
Y8839D01*
X87687D01*
Y8739D01*
X87654D01*
Y8672D01*
X87621D01*
Y8639D01*
X87587D01*
Y8573D01*
X87554D01*
Y8539D01*
X87521D01*
Y8473D01*
X87488D01*
Y8439D01*
X87454D01*
Y8406D01*
X87421D01*
Y8373D01*
X87388D01*
Y8340D01*
X87355D01*
Y8307D01*
X87322D01*
Y8273D01*
X87288D01*
Y8240D01*
X87255D01*
Y8207D01*
X87222D01*
Y8174D01*
X87189D01*
Y8140D01*
X87122D01*
Y8107D01*
X87089D01*
Y8074D01*
X87022D01*
Y8040D01*
X86956D01*
Y8007D01*
X86889D01*
Y7974D01*
X86789D01*
Y7941D01*
X86690D01*
Y7908D01*
X86557D01*
Y7874D01*
X83564D01*
Y7908D01*
X83398D01*
Y7941D01*
X83298D01*
Y7974D01*
X83232D01*
Y8007D01*
X83132D01*
Y8040D01*
X83099D01*
Y8074D01*
X83032D01*
Y8107D01*
X82966D01*
Y8140D01*
X82932D01*
Y8174D01*
X82899D01*
Y8207D01*
X82833D01*
Y8240D01*
X82799D01*
Y8273D01*
X82766D01*
Y8307D01*
X82733D01*
Y8340D01*
X82700D01*
Y8373D01*
X82666D01*
Y8406D01*
X82633D01*
Y8473D01*
X82600D01*
Y8506D01*
X82567D01*
Y8539D01*
X82533D01*
Y8606D01*
X82500D01*
Y8639D01*
X82467D01*
Y8705D01*
X82434D01*
Y8772D01*
X82400D01*
Y8872D01*
X82367D01*
Y8971D01*
X82334D01*
Y9104D01*
X82301D01*
Y11166D01*
Y11199D01*
Y11432D01*
X82267D01*
Y11665D01*
X82234D01*
Y11765D01*
X82201D01*
Y11864D01*
X82168D01*
Y11931D01*
X82134D01*
Y11997D01*
X82101D01*
Y12064D01*
X82068D01*
Y12130D01*
X82035D01*
Y12163D01*
X82001D01*
Y12230D01*
X81968D01*
Y12263D01*
X81935D01*
Y12297D01*
X81902D01*
Y12330D01*
X81868D01*
Y12363D01*
X81835D01*
Y12396D01*
X81802D01*
Y12430D01*
X81769D01*
Y12463D01*
X81735D01*
Y12496D01*
X81669D01*
Y12529D01*
X81636D01*
Y12562D01*
X81569D01*
Y12596D01*
X81536D01*
Y12629D01*
X81469D01*
Y12662D01*
X81370D01*
Y12696D01*
X81303D01*
Y12729D01*
X81170D01*
Y12762D01*
X81004D01*
Y12795D01*
X80306D01*
Y12762D01*
X80139D01*
Y12729D01*
X80006D01*
Y12696D01*
X79940D01*
Y12662D01*
X79840D01*
Y12629D01*
X79774D01*
Y12596D01*
X79740D01*
Y12562D01*
X79674D01*
Y12529D01*
X79607D01*
Y12496D01*
X79574D01*
Y12463D01*
X79541D01*
Y12430D01*
X79508D01*
Y12396D01*
X79474D01*
Y12363D01*
X79441D01*
Y12330D01*
X79408D01*
Y12297D01*
X79375D01*
Y12263D01*
X79341D01*
Y12230D01*
X79308D01*
Y12163D01*
X79275D01*
Y12130D01*
X79242D01*
Y12064D01*
X79208D01*
Y11997D01*
X79175D01*
Y11931D01*
X79142D01*
Y11864D01*
X79109D01*
Y11798D01*
X79075D01*
Y11731D01*
X79042D01*
Y11665D01*
X79009D01*
Y11598D01*
X78976D01*
Y11532D01*
X78942D01*
Y11465D01*
X78909D01*
Y11399D01*
X78876D01*
Y11332D01*
X78843D01*
Y11266D01*
X78809D01*
Y11166D01*
X78776D01*
Y11100D01*
X78743D01*
Y11033D01*
X78710D01*
Y10966D01*
X78676D01*
Y10900D01*
X78643D01*
Y10834D01*
X78610D01*
Y10767D01*
X78577D01*
Y10701D01*
X78543D01*
Y10634D01*
X78510D01*
Y10567D01*
X78477D01*
Y10468D01*
X78444D01*
Y10401D01*
X78410D01*
Y10335D01*
X78377D01*
Y10268D01*
X78344D01*
Y10202D01*
X78311D01*
Y10135D01*
X78277D01*
Y10069D01*
X78244D01*
Y10002D01*
X78211D01*
Y9936D01*
X78178D01*
Y9869D01*
X78144D01*
Y9803D01*
X78111D01*
Y9703D01*
X78078D01*
Y9636D01*
X78045D01*
Y9570D01*
X78011D01*
Y9504D01*
X77978D01*
Y9437D01*
X77945D01*
Y9370D01*
X77912D01*
Y9304D01*
X77878D01*
Y9238D01*
X77845D01*
Y9171D01*
X77812D01*
Y9104D01*
X77779D01*
Y9005D01*
X77745D01*
Y8938D01*
X77712D01*
Y8872D01*
X77679D01*
Y8805D01*
X77646D01*
Y8739D01*
X77612D01*
Y8672D01*
X77579D01*
Y8606D01*
X77546D01*
Y8573D01*
X77513D01*
Y8506D01*
X77479D01*
Y8473D01*
X77446D01*
Y8439D01*
X77413D01*
Y8406D01*
X77380D01*
Y8373D01*
X77346D01*
Y8340D01*
X77313D01*
Y8307D01*
X77280D01*
Y8273D01*
X77247D01*
Y8240D01*
X77213D01*
Y8207D01*
X77180D01*
Y8174D01*
X77147D01*
Y8140D01*
X77080D01*
Y8107D01*
X77047D01*
Y8074D01*
X76981D01*
Y8040D01*
X76914D01*
Y8007D01*
X76848D01*
Y7974D01*
X76748D01*
Y7941D01*
X76648D01*
Y7908D01*
X76515D01*
Y7874D01*
X73622D01*
Y7908D01*
X73456D01*
Y7941D01*
X73356D01*
Y7974D01*
X73257D01*
Y8007D01*
X73190D01*
Y8040D01*
X73124D01*
Y8074D01*
X73090D01*
Y8107D01*
X73024D01*
Y8140D01*
X72991D01*
Y8174D01*
X72924D01*
Y8207D01*
X72891D01*
Y8240D01*
X72858D01*
Y8273D01*
X72824D01*
Y8307D01*
X72791D01*
Y8340D01*
X72758D01*
Y8373D01*
X72725D01*
Y8406D01*
X72691D01*
Y8439D01*
X72658D01*
Y8506D01*
X72625D01*
Y8539D01*
X72592D01*
Y8606D01*
X72558D01*
Y8639D01*
X72525D01*
Y8705D01*
X72492D01*
Y8772D01*
X72459D01*
Y8872D01*
X72425D01*
Y8971D01*
X72392D01*
Y9104D01*
X72359D01*
Y9703D01*
X72392D01*
Y9836D01*
X72425D01*
Y9936D01*
X72459D01*
Y10002D01*
X72492D01*
Y10069D01*
X72525D01*
Y10135D01*
X72558D01*
Y10202D01*
X72592D01*
Y10268D01*
X72625D01*
Y10335D01*
X72658D01*
Y10401D01*
X72691D01*
Y10468D01*
X72725D01*
Y10501D01*
X72758D01*
Y10567D01*
X72791D01*
Y10634D01*
X72824D01*
Y10701D01*
X72858D01*
Y10767D01*
X72891D01*
Y10834D01*
X72924D01*
Y10867D01*
X72957D01*
Y10933D01*
X72991D01*
Y11000D01*
X73024D01*
Y11066D01*
X73057D01*
Y11133D01*
X73090D01*
Y11199D01*
X73124D01*
Y11266D01*
X73157D01*
Y11299D01*
X73190D01*
Y11366D01*
X73223D01*
Y11432D01*
X73257D01*
Y11498D01*
X73290D01*
Y11565D01*
X73323D01*
Y11631D01*
X73356D01*
Y11665D01*
X73390D01*
Y11731D01*
X73423D01*
Y11798D01*
X73456D01*
Y11864D01*
X73489D01*
Y11931D01*
X73523D01*
Y11997D01*
X73556D01*
Y12064D01*
X73589D01*
Y12097D01*
X73622D01*
Y12163D01*
X73656D01*
Y12230D01*
X73689D01*
Y12297D01*
X73722D01*
Y12363D01*
X73755D01*
Y12430D01*
X73789D01*
Y12496D01*
X73822D01*
Y12529D01*
X73855D01*
Y12596D01*
X73888D01*
Y12662D01*
X73922D01*
Y12729D01*
X73955D01*
Y12829D01*
X73988D01*
Y12928D01*
X74021D01*
Y13094D01*
X74055D01*
Y13560D01*
X74021D01*
Y13726D01*
X73988D01*
Y13826D01*
X73955D01*
Y13893D01*
X73922D01*
Y13959D01*
X73888D01*
Y14026D01*
X73855D01*
Y14092D01*
X73822D01*
Y14159D01*
X73789D01*
Y14192D01*
X73755D01*
Y14225D01*
X73722D01*
Y14291D01*
X73689D01*
Y14325D01*
X73656D01*
Y14358D01*
X73622D01*
Y14391D01*
X73589D01*
Y14424D01*
X73556D01*
Y14458D01*
X73523D01*
Y14491D01*
X73489D01*
Y14524D01*
X73456D01*
Y14558D01*
X73423D01*
Y14591D01*
X73390D01*
Y14624D01*
X73356D01*
Y14657D01*
X73323D01*
Y14691D01*
X73290D01*
Y14724D01*
X73257D01*
Y14757D01*
X73223D01*
Y14790D01*
X73190D01*
Y14823D01*
X73157D01*
Y14857D01*
X73124D01*
Y14890D01*
X73090D01*
Y14923D01*
X73057D01*
Y14956D01*
X73024D01*
Y14990D01*
X72991D01*
Y15023D01*
X72957D01*
Y15056D01*
X72924D01*
Y15089D01*
X72891D01*
Y15123D01*
X72858D01*
Y15156D01*
X72824D01*
Y15189D01*
X72791D01*
Y15223D01*
X72758D01*
Y15256D01*
X72725D01*
Y15289D01*
X72691D01*
Y15322D01*
X72658D01*
Y15356D01*
X72625D01*
Y15389D01*
X72592D01*
Y15422D01*
X72558D01*
Y15455D01*
X72525D01*
Y15488D01*
X72492D01*
Y15522D01*
X72459D01*
Y15555D01*
X72425D01*
Y15588D01*
X72392D01*
Y15621D01*
X72359D01*
Y15655D01*
X72326D01*
Y15688D01*
X72292D01*
Y15721D01*
X72259D01*
Y15755D01*
X72226D01*
Y15788D01*
X72193D01*
Y15854D01*
X72159D01*
Y15888D01*
X72126D01*
Y15954D01*
X72093D01*
Y15987D01*
X72060D01*
Y16054D01*
X72026D01*
Y16120D01*
X71993D01*
Y16220D01*
X71960D01*
Y16320D01*
X71927D01*
Y16486D01*
X71893D01*
Y20675D01*
X71927D01*
Y20809D01*
X71960D01*
Y20942D01*
X71993D01*
Y21008D01*
X72026D01*
Y21075D01*
X72060D01*
Y21141D01*
X72093D01*
Y21207D01*
X72126D01*
Y21274D01*
X72159D01*
Y21307D01*
X72193D01*
Y21340D01*
X72226D01*
Y21407D01*
X72259D01*
Y21440D01*
X72292D01*
Y21474D01*
X72326D01*
Y21507D01*
X72359D01*
Y21540D01*
X72392D01*
Y21573D01*
X72425D01*
Y21607D01*
X72459D01*
Y21640D01*
X72492D01*
Y21673D01*
X72525D01*
Y21706D01*
X72558D01*
Y21739D01*
X72592D01*
Y21773D01*
X72625D01*
Y21806D01*
X72658D01*
Y21839D01*
X72691D01*
Y21872D01*
X72725D01*
Y21906D01*
X72758D01*
Y21939D01*
X72791D01*
Y21972D01*
X72824D01*
Y22005D01*
X72858D01*
Y22039D01*
X72891D01*
Y22072D01*
X72924D01*
Y22105D01*
X72957D01*
Y22139D01*
X72991D01*
Y22172D01*
X73024D01*
Y22205D01*
X73057D01*
Y22238D01*
X73090D01*
Y22272D01*
X73124D01*
Y22305D01*
X73157D01*
Y22338D01*
X73190D01*
Y22371D01*
X73223D01*
Y22404D01*
X73257D01*
Y22438D01*
X73290D01*
Y22471D01*
X73323D01*
Y22504D01*
X73356D01*
Y22537D01*
X73390D01*
Y22571D01*
X73423D01*
Y22604D01*
X73456D01*
Y22637D01*
X73489D01*
Y22670D01*
X73523D01*
Y22704D01*
X73556D01*
Y22737D01*
X73589D01*
Y22770D01*
X73622D01*
Y22804D01*
X73656D01*
Y22837D01*
X73689D01*
Y22870D01*
X73722D01*
Y22903D01*
X73755D01*
Y22937D01*
X73789D01*
Y22970D01*
X73822D01*
Y23003D01*
X73855D01*
Y23036D01*
X73888D01*
Y23069D01*
X73922D01*
Y23103D01*
X73955D01*
Y23136D01*
X73988D01*
Y23169D01*
X74021D01*
Y23202D01*
X74055D01*
Y23236D01*
X74088D01*
Y23269D01*
X74121D01*
Y23302D01*
X74154D01*
Y23336D01*
X74188D01*
Y23369D01*
X74221D01*
Y23402D01*
X74254D01*
Y23435D01*
X74287D01*
Y23469D01*
X74321D01*
Y23502D01*
X74354D01*
Y23535D01*
X74387D01*
Y23568D01*
X74420D01*
Y23602D01*
X74454D01*
Y23635D01*
X74487D01*
Y23668D01*
X74520D01*
Y23701D01*
X74553D01*
Y23734D01*
X74620D01*
Y23768D01*
X74653D01*
Y23801D01*
X74686D01*
Y23834D01*
X74720D01*
Y23867D01*
X74753D01*
Y23901D01*
X74786D01*
Y23934D01*
X74819D01*
Y23967D01*
X74853D01*
Y24001D01*
X74886D01*
Y24034D01*
X74919D01*
Y24067D01*
X74986D01*
Y24100D01*
X75019D01*
Y24134D01*
X75085D01*
Y24167D01*
X75152D01*
Y24200D01*
X75218D01*
Y24233D01*
X75285D01*
Y24266D01*
X75418D01*
Y24300D01*
X75551D01*
Y24333D01*
X86557D01*
Y24300D01*
D02*
G37*
G36*
X62338Y7804D02*
X61939D01*
Y7837D01*
X61906D01*
Y8136D01*
Y8169D01*
Y13124D01*
X61939D01*
Y13157D01*
X62338D01*
Y7804D01*
D02*
G37*
G36*
X54558Y8136D02*
Y8103D01*
Y7837D01*
X54524D01*
Y7804D01*
X54125D01*
Y11561D01*
X54558D01*
Y8136D01*
D02*
G37*
G36*
X47642Y11594D02*
X47775D01*
Y11561D01*
X47874D01*
Y11528D01*
X47974D01*
Y11494D01*
X48007D01*
Y11461D01*
X48074D01*
Y11428D01*
X48140D01*
Y11395D01*
X48174D01*
Y11361D01*
X48240D01*
Y11328D01*
X48273D01*
Y11295D01*
X48307D01*
Y11262D01*
X48340D01*
Y11228D01*
X48373D01*
Y11195D01*
X48406D01*
Y11162D01*
X48440D01*
Y11129D01*
X48473D01*
Y11062D01*
X48506D01*
Y11029D01*
X48539D01*
Y10996D01*
X48606D01*
Y11561D01*
X49005D01*
Y7804D01*
X48606D01*
Y7837D01*
X48573D01*
Y8568D01*
Y8602D01*
Y10464D01*
X48539D01*
Y10530D01*
X48506D01*
Y10597D01*
X48473D01*
Y10663D01*
X48440D01*
Y10730D01*
X48406D01*
Y10763D01*
X48373D01*
Y10829D01*
X48340D01*
Y10863D01*
X48307D01*
Y10896D01*
X48273D01*
Y10929D01*
X48240D01*
Y10962D01*
X48207D01*
Y10996D01*
X48174D01*
Y11029D01*
X48140D01*
Y11062D01*
X48074D01*
Y11095D01*
X48041D01*
Y11129D01*
X47974D01*
Y11162D01*
X47908D01*
Y11195D01*
X47841D01*
Y11228D01*
X47708D01*
Y11262D01*
X47176D01*
Y11228D01*
X47043D01*
Y11195D01*
X46977D01*
Y11162D01*
X46910D01*
Y11129D01*
X46877D01*
Y11095D01*
X46844D01*
Y11062D01*
X46810D01*
Y11029D01*
X46777D01*
Y10996D01*
X46744D01*
Y10929D01*
X46711D01*
Y10896D01*
X46677D01*
Y10796D01*
X46644D01*
Y10696D01*
X46611D01*
Y10530D01*
X46578D01*
Y7804D01*
X46179D01*
Y7837D01*
X46145D01*
Y10364D01*
X46179D01*
Y10696D01*
X46212D01*
Y10863D01*
X46245D01*
Y10962D01*
X46278D01*
Y11029D01*
X46312D01*
Y11095D01*
X46345D01*
Y11162D01*
X46378D01*
Y11228D01*
X46411D01*
Y11262D01*
X46445D01*
Y11295D01*
X46478D01*
Y11328D01*
X46511D01*
Y11361D01*
X46544D01*
Y11395D01*
X46578D01*
Y11428D01*
X46611D01*
Y11461D01*
X46677D01*
Y11494D01*
X46744D01*
Y11528D01*
X46810D01*
Y11561D01*
X46910D01*
Y11594D01*
X47043D01*
Y11627D01*
X47642D01*
Y11594D01*
D02*
G37*
G36*
X69088D02*
X69221D01*
Y11561D01*
X69321D01*
Y11528D01*
X69420D01*
Y11494D01*
X69487D01*
Y11461D01*
X69553D01*
Y11428D01*
X69587D01*
Y11395D01*
X69653D01*
Y11361D01*
X69686D01*
Y11328D01*
X69720D01*
Y11295D01*
X69753D01*
Y11262D01*
X69786D01*
Y11228D01*
X69819D01*
Y11195D01*
X69853D01*
Y11162D01*
X69886D01*
Y11129D01*
X69919D01*
Y11062D01*
X69952D01*
Y10996D01*
X69986D01*
Y10929D01*
X70019D01*
Y10796D01*
X70052D01*
Y10397D01*
X70019D01*
Y10297D01*
X69986D01*
Y10231D01*
X69952D01*
Y10164D01*
X69919D01*
Y10098D01*
X69886D01*
Y10065D01*
X69853D01*
Y10031D01*
X69819D01*
Y9998D01*
X69786D01*
Y9965D01*
X69753D01*
Y9932D01*
X69720D01*
Y9898D01*
X69653D01*
Y9865D01*
X69620D01*
Y9832D01*
X69553D01*
Y9799D01*
X69487D01*
Y9765D01*
X69420D01*
Y9732D01*
X69321D01*
Y9699D01*
X69221D01*
Y9666D01*
X69121D01*
Y9632D01*
X69021D01*
Y9599D01*
X68888D01*
Y9566D01*
X68722D01*
Y9533D01*
X68589D01*
Y9499D01*
X68456D01*
Y9466D01*
X68356D01*
Y9433D01*
X68290D01*
Y9400D01*
X68190D01*
Y9366D01*
X68124D01*
Y9333D01*
X68057D01*
Y9300D01*
X68024D01*
Y9267D01*
X67991D01*
Y9233D01*
X67924D01*
Y9200D01*
X67891D01*
Y9167D01*
X67858D01*
Y9100D01*
X67824D01*
Y9067D01*
X67791D01*
Y9001D01*
X67758D01*
Y8868D01*
X67725D01*
Y8668D01*
X67758D01*
Y8568D01*
X67791D01*
Y8469D01*
X67824D01*
Y8435D01*
X67858D01*
Y8402D01*
X67891D01*
Y8369D01*
X67924D01*
Y8336D01*
X67957D01*
Y8302D01*
X67991D01*
Y8269D01*
X68024D01*
Y8236D01*
X68090D01*
Y8203D01*
X68157D01*
Y8169D01*
X68257D01*
Y8136D01*
X68356D01*
Y8103D01*
X68622D01*
Y8070D01*
X68789D01*
Y8103D01*
X69055D01*
Y8136D01*
X69188D01*
Y8169D01*
X69254D01*
Y8203D01*
X69354D01*
Y8236D01*
X69387D01*
Y8269D01*
X69454D01*
Y8302D01*
X69487D01*
Y8336D01*
X69520D01*
Y8369D01*
X69553D01*
Y8402D01*
X69587D01*
Y8435D01*
X69620D01*
Y8469D01*
X69653D01*
Y8535D01*
X69686D01*
Y8602D01*
X69720D01*
Y8701D01*
X69753D01*
Y8834D01*
X69786D01*
Y8868D01*
X70152D01*
Y8834D01*
X70185D01*
Y8701D01*
X70152D01*
Y8568D01*
X70119D01*
Y8535D01*
Y8469D01*
X70085D01*
Y8402D01*
X70052D01*
Y8336D01*
X70019D01*
Y8302D01*
X69986D01*
Y8236D01*
X69952D01*
Y8203D01*
X69919D01*
Y8169D01*
X69886D01*
Y8136D01*
X69853D01*
Y8103D01*
X69819D01*
Y8070D01*
X69786D01*
Y8036D01*
X69720D01*
Y8003D01*
X69686D01*
Y7970D01*
X69620D01*
Y7937D01*
X69553D01*
Y7903D01*
X69487D01*
Y7870D01*
X69420D01*
Y7837D01*
X69321D01*
Y7804D01*
X69221D01*
Y7770D01*
X69021D01*
Y7737D01*
X68390D01*
Y7770D01*
X68190D01*
Y7804D01*
X68090D01*
Y7837D01*
X67991D01*
Y7870D01*
X67924D01*
Y7903D01*
X67858D01*
Y7937D01*
X67791D01*
Y7970D01*
X67758D01*
Y8003D01*
X67691D01*
Y8036D01*
X67658D01*
Y8070D01*
X67625D01*
Y8103D01*
X67592D01*
Y8136D01*
X67558D01*
Y8169D01*
X67525D01*
Y8203D01*
X67492D01*
Y8236D01*
X67459D01*
Y8302D01*
X67425D01*
Y8369D01*
X67392D01*
Y8435D01*
X67359D01*
Y8535D01*
X67326D01*
Y9034D01*
X67359D01*
Y9134D01*
X67392D01*
Y9233D01*
X67425D01*
Y9267D01*
X67459D01*
Y9333D01*
X67492D01*
Y9366D01*
X67525D01*
Y9400D01*
X67558D01*
Y9433D01*
X67592D01*
Y9466D01*
X67625D01*
Y9499D01*
X67658D01*
Y9533D01*
X67725D01*
Y9566D01*
X67758D01*
Y9599D01*
X67824D01*
Y9632D01*
X67891D01*
Y9666D01*
X67957D01*
Y9699D01*
X68024D01*
Y9732D01*
X68124D01*
Y9765D01*
X68223D01*
Y9799D01*
X68323D01*
Y9832D01*
X68456D01*
Y9865D01*
X68556D01*
Y9898D01*
X68722D01*
Y9932D01*
X68855D01*
Y9965D01*
X68955D01*
Y9998D01*
X69055D01*
Y10031D01*
X69154D01*
Y10065D01*
X69221D01*
Y10098D01*
X69287D01*
Y10131D01*
X69354D01*
Y10164D01*
X69420D01*
Y10198D01*
X69454D01*
Y10231D01*
X69487D01*
Y10264D01*
X69520D01*
Y10297D01*
X69553D01*
Y10364D01*
X69587D01*
Y10430D01*
X69620D01*
Y10829D01*
X69587D01*
Y10896D01*
X69553D01*
Y10962D01*
X69520D01*
Y10996D01*
X69487D01*
Y11029D01*
X69454D01*
Y11062D01*
X69420D01*
Y11095D01*
X69354D01*
Y11129D01*
X69321D01*
Y11162D01*
X69254D01*
Y11195D01*
X69188D01*
Y11228D01*
X69055D01*
Y11262D01*
X68855D01*
Y11295D01*
X68622D01*
Y11262D01*
X68390D01*
Y11228D01*
X68290D01*
Y11195D01*
X68223D01*
Y11162D01*
X68157D01*
Y11129D01*
X68090D01*
Y11095D01*
X68057D01*
Y11062D01*
X68024D01*
Y11029D01*
X67957D01*
Y10996D01*
X67924D01*
Y10929D01*
X67891D01*
Y10896D01*
X67858D01*
Y10863D01*
X67824D01*
Y10763D01*
X67791D01*
Y10696D01*
X67758D01*
Y10530D01*
X67725D01*
Y10497D01*
X67359D01*
Y10530D01*
X67326D01*
Y10663D01*
X67359D01*
Y10829D01*
X67392D01*
Y10929D01*
X67425D01*
Y10996D01*
X67459D01*
Y11062D01*
X67492D01*
Y11095D01*
X67525D01*
Y11162D01*
X67558D01*
Y11195D01*
X67592D01*
Y11228D01*
X67625D01*
Y11262D01*
X67658D01*
Y11295D01*
X67691D01*
Y11328D01*
X67725D01*
Y11361D01*
X67791D01*
Y11395D01*
X67824D01*
Y11428D01*
X67891D01*
Y11461D01*
X67957D01*
Y11494D01*
X68024D01*
Y11528D01*
X68090D01*
Y11561D01*
X68223D01*
Y11594D01*
X68356D01*
Y11627D01*
X69088D01*
Y11594D01*
D02*
G37*
G36*
X65264D02*
X65397D01*
Y11561D01*
X65497D01*
Y11528D01*
X65597D01*
Y11494D01*
X65663D01*
Y11461D01*
X65730D01*
Y11428D01*
X65796D01*
Y11395D01*
X65829D01*
Y11361D01*
X65896D01*
Y11328D01*
X65929D01*
Y11295D01*
X65962D01*
Y11262D01*
X65996D01*
Y11228D01*
X66062D01*
Y11195D01*
X66095D01*
Y11162D01*
X66129D01*
Y11095D01*
X66162D01*
Y11062D01*
X66195D01*
Y11029D01*
X66228D01*
Y10996D01*
X66262D01*
Y10929D01*
X66295D01*
Y10896D01*
X66328D01*
Y10829D01*
X66361D01*
Y10763D01*
X66395D01*
Y10696D01*
X66428D01*
Y10630D01*
X66461D01*
Y10530D01*
X66494D01*
Y10430D01*
X66528D01*
Y10331D01*
X66561D01*
Y10164D01*
X66594D01*
Y9799D01*
X66627D01*
Y9599D01*
X66594D01*
Y9200D01*
X66561D01*
Y9034D01*
X66528D01*
Y8934D01*
X66494D01*
Y8834D01*
X66461D01*
Y8735D01*
X66428D01*
Y8668D01*
X66395D01*
Y8602D01*
X66361D01*
Y8535D01*
X66328D01*
Y8469D01*
X66295D01*
Y8435D01*
X66262D01*
Y8402D01*
X66228D01*
Y8336D01*
X66195D01*
Y8302D01*
X66162D01*
Y8269D01*
X66129D01*
Y8236D01*
X66095D01*
Y8203D01*
X66062D01*
Y8169D01*
X66029D01*
Y8136D01*
X65996D01*
Y8103D01*
X65962D01*
Y8070D01*
X65929D01*
Y8036D01*
X65896D01*
Y8003D01*
X65829D01*
Y7970D01*
X65763D01*
Y7937D01*
X65730D01*
Y7903D01*
X65663D01*
Y7870D01*
X65563D01*
Y7837D01*
X65497D01*
Y7804D01*
X65397D01*
Y7770D01*
X65231D01*
Y7737D01*
X64632D01*
Y7770D01*
X64466D01*
Y7804D01*
X64366D01*
Y7837D01*
X64267D01*
Y7870D01*
X64200D01*
Y7903D01*
X64134D01*
Y7937D01*
X64067D01*
Y7970D01*
X64034D01*
Y8003D01*
X63967D01*
Y8036D01*
X63934D01*
Y8070D01*
X63901D01*
Y8103D01*
X63834D01*
Y8136D01*
X63801D01*
Y8169D01*
X63768D01*
Y8203D01*
X63735D01*
Y8236D01*
X63701D01*
Y8302D01*
X63668D01*
Y8336D01*
X63635D01*
Y8369D01*
X63602D01*
Y8435D01*
X63568D01*
Y8469D01*
X63535D01*
Y8535D01*
X63502D01*
Y8602D01*
X63469D01*
Y8668D01*
X63435D01*
Y8735D01*
X63402D01*
Y8801D01*
X63369D01*
Y8901D01*
X63336D01*
Y9034D01*
X63302D01*
Y9167D01*
X63269D01*
Y9466D01*
X63236D01*
Y9865D01*
X63269D01*
Y10198D01*
X63302D01*
Y10331D01*
X63336D01*
Y10464D01*
X63369D01*
Y10563D01*
X63402D01*
Y10630D01*
X63435D01*
Y10730D01*
X63469D01*
Y10796D01*
X63502D01*
Y10829D01*
X63535D01*
Y10896D01*
X63568D01*
Y10962D01*
X63602D01*
Y10996D01*
X63635D01*
Y11029D01*
X63668D01*
Y11095D01*
X63701D01*
Y11129D01*
X63735D01*
Y11162D01*
X63768D01*
Y11195D01*
X63801D01*
Y11228D01*
X63834D01*
Y11262D01*
X63868D01*
Y11295D01*
X63934D01*
Y11328D01*
X63967D01*
Y11361D01*
X64001D01*
Y11395D01*
X64067D01*
Y11428D01*
X64134D01*
Y11461D01*
X64200D01*
Y11494D01*
X64267D01*
Y11528D01*
X64333D01*
Y11561D01*
X64433D01*
Y11594D01*
X64599D01*
Y11627D01*
X65264D01*
Y11594D01*
D02*
G37*
G36*
X51864D02*
X51997D01*
Y11561D01*
X52130D01*
Y11528D01*
X52197D01*
Y11494D01*
X52263D01*
Y11461D01*
X52330D01*
Y11428D01*
X52396D01*
Y11395D01*
X52463D01*
Y11361D01*
X52496D01*
Y11328D01*
X52529D01*
Y11295D01*
X52596D01*
Y11262D01*
X52629D01*
Y11228D01*
X52662D01*
Y11195D01*
X52696D01*
Y11162D01*
X52729D01*
Y11129D01*
X52762D01*
Y11095D01*
X52795D01*
Y11062D01*
X52829D01*
Y10996D01*
X52862D01*
Y10962D01*
X52895D01*
Y10896D01*
X52928D01*
Y10863D01*
X52962D01*
Y10796D01*
X52995D01*
Y10730D01*
X53028D01*
Y10663D01*
X53061D01*
Y10563D01*
X53095D01*
Y10497D01*
X53128D01*
Y10364D01*
X53161D01*
Y10231D01*
X53194D01*
Y10031D01*
X53228D01*
Y9366D01*
X53194D01*
Y9134D01*
X53161D01*
Y9001D01*
X53128D01*
Y8901D01*
X53095D01*
Y8801D01*
X53061D01*
Y8701D01*
X53028D01*
Y8635D01*
X52995D01*
Y8568D01*
X52962D01*
Y8502D01*
X52928D01*
Y8469D01*
X52895D01*
Y8402D01*
X52862D01*
Y8369D01*
X52829D01*
Y8336D01*
X52795D01*
Y8302D01*
X52762D01*
Y8236D01*
X52729D01*
Y8203D01*
X52696D01*
Y8169D01*
X52662D01*
Y8136D01*
X52629D01*
Y8103D01*
X52563D01*
Y8070D01*
X52529D01*
Y8036D01*
X52496D01*
Y8003D01*
X52430D01*
Y7970D01*
X52396D01*
Y7937D01*
X52330D01*
Y7903D01*
X52263D01*
Y7870D01*
X52197D01*
Y7837D01*
X52097D01*
Y7804D01*
X51997D01*
Y7770D01*
X51831D01*
Y7737D01*
X51266D01*
Y7770D01*
X51100D01*
Y7804D01*
X50967D01*
Y7837D01*
X50900D01*
Y7870D01*
X50800D01*
Y7903D01*
X50734D01*
Y7937D01*
X50701D01*
Y7970D01*
X50634D01*
Y8003D01*
X50601D01*
Y8036D01*
X50534D01*
Y8070D01*
X50501D01*
Y8103D01*
X50468D01*
Y8136D01*
X50435D01*
Y8169D01*
X50401D01*
Y8203D01*
X50368D01*
Y8236D01*
X50335D01*
Y8269D01*
X50302D01*
Y8302D01*
X50268D01*
Y8336D01*
X50235D01*
Y8402D01*
X50202D01*
Y8435D01*
X50169D01*
Y8502D01*
X50135D01*
Y8535D01*
X50102D01*
Y8602D01*
X50069D01*
Y8668D01*
X50036D01*
Y8768D01*
X50002D01*
Y8868D01*
X49969D01*
Y8934D01*
X49936D01*
Y9067D01*
X49903D01*
Y9267D01*
X49869D01*
Y10098D01*
X49903D01*
Y10297D01*
X49936D01*
Y10430D01*
X49969D01*
Y10530D01*
X50002D01*
Y10630D01*
X50036D01*
Y10696D01*
X50069D01*
Y10763D01*
X50102D01*
Y10829D01*
X50135D01*
Y10896D01*
X50169D01*
Y10929D01*
X50202D01*
Y10962D01*
X50235D01*
Y11029D01*
X50268D01*
Y11062D01*
X50302D01*
Y11095D01*
X50335D01*
Y11129D01*
X50368D01*
Y11162D01*
X50401D01*
Y11195D01*
X50435D01*
Y11228D01*
X50468D01*
Y11262D01*
X50501D01*
Y11295D01*
X50534D01*
Y11328D01*
X50568D01*
Y11361D01*
X50634D01*
Y11395D01*
X50667D01*
Y11428D01*
X50734D01*
Y11461D01*
X50800D01*
Y11494D01*
X50867D01*
Y11528D01*
X50967D01*
Y11561D01*
X51066D01*
Y11594D01*
X51199D01*
Y11627D01*
X51864D01*
Y11594D01*
D02*
G37*
G36*
X44184D02*
X44317D01*
Y11561D01*
X44416D01*
Y11528D01*
X44516D01*
Y11494D01*
X44583D01*
Y11461D01*
X44649D01*
Y11428D01*
X44682D01*
Y11395D01*
X44749D01*
Y11361D01*
X44782D01*
Y11328D01*
X44815D01*
Y11295D01*
X44849D01*
Y11262D01*
X44882D01*
Y11228D01*
X44915D01*
Y11195D01*
X44948D01*
Y11162D01*
X44982D01*
Y11129D01*
X45015D01*
Y11062D01*
X45048D01*
Y10996D01*
X45081D01*
Y10929D01*
X45115D01*
Y10796D01*
X45148D01*
Y10397D01*
X45115D01*
Y10297D01*
X45081D01*
Y10231D01*
X45048D01*
Y10164D01*
X45015D01*
Y10098D01*
X44982D01*
Y10065D01*
X44948D01*
Y10031D01*
X44915D01*
Y9998D01*
X44882D01*
Y9965D01*
X44849D01*
Y9932D01*
X44815D01*
Y9898D01*
X44749D01*
Y9865D01*
X44716D01*
Y9832D01*
X44649D01*
Y9799D01*
X44583D01*
Y9765D01*
X44516D01*
Y9732D01*
X44416D01*
Y9699D01*
X44317D01*
Y9666D01*
X44217D01*
Y9632D01*
X44117D01*
Y9599D01*
X43951D01*
Y9566D01*
X43818D01*
Y9533D01*
X43685D01*
Y9499D01*
X43552D01*
Y9466D01*
X43452D01*
Y9433D01*
X43352D01*
Y9400D01*
X43286D01*
Y9366D01*
X43219D01*
Y9333D01*
X43153D01*
Y9300D01*
X43120D01*
Y9267D01*
X43053D01*
Y9233D01*
X43020D01*
Y9200D01*
X42987D01*
Y9167D01*
X42953D01*
Y9100D01*
X42920D01*
Y9067D01*
X42887D01*
Y9001D01*
X42854D01*
Y8868D01*
X42820D01*
Y8668D01*
X42854D01*
Y8535D01*
X42887D01*
Y8469D01*
X42920D01*
Y8435D01*
X42953D01*
Y8402D01*
X42987D01*
Y8369D01*
X43020D01*
Y8336D01*
X43053D01*
Y8302D01*
X43086D01*
Y8269D01*
X43120D01*
Y8236D01*
X43186D01*
Y8203D01*
X43253D01*
Y8169D01*
X43352D01*
Y8136D01*
X43452D01*
Y8103D01*
X43718D01*
Y8070D01*
X43884D01*
Y8103D01*
X44150D01*
Y8136D01*
X44283D01*
Y8169D01*
X44350D01*
Y8203D01*
X44416D01*
Y8236D01*
X44483D01*
Y8269D01*
X44549D01*
Y8302D01*
X44583D01*
Y8336D01*
X44616D01*
Y8369D01*
X44649D01*
Y8402D01*
X44682D01*
Y8435D01*
X44716D01*
Y8469D01*
X44749D01*
Y8535D01*
X44782D01*
Y8602D01*
X44815D01*
Y8701D01*
X44849D01*
Y8834D01*
X44882D01*
Y8868D01*
X45248D01*
Y8834D01*
X45281D01*
Y8701D01*
X45248D01*
Y8568D01*
X45214D01*
Y8469D01*
X45181D01*
Y8402D01*
X45148D01*
Y8336D01*
X45115D01*
Y8302D01*
X45081D01*
Y8236D01*
X45048D01*
Y8203D01*
X45015D01*
Y8169D01*
X44982D01*
Y8136D01*
X44948D01*
Y8103D01*
X44915D01*
Y8070D01*
X44882D01*
Y8036D01*
X44815D01*
Y8003D01*
X44782D01*
Y7970D01*
X44716D01*
Y7937D01*
X44649D01*
Y7903D01*
X44583D01*
Y7870D01*
X44516D01*
Y7837D01*
X44416D01*
Y7804D01*
X44317D01*
Y7770D01*
X44117D01*
Y7737D01*
X43485D01*
Y7770D01*
X43286D01*
Y7804D01*
X43186D01*
Y7837D01*
X43086D01*
Y7870D01*
X43020D01*
Y7903D01*
X42953D01*
Y7937D01*
X42887D01*
Y7970D01*
X42820D01*
Y8003D01*
X42787D01*
Y8036D01*
X42754D01*
Y8070D01*
X42721D01*
Y8103D01*
X42687D01*
Y8136D01*
X42654D01*
Y8169D01*
X42621D01*
Y8203D01*
X42588D01*
Y8236D01*
X42554D01*
Y8302D01*
X42521D01*
Y8369D01*
X42488D01*
Y8435D01*
X42455D01*
Y8535D01*
X42421D01*
Y9034D01*
X42455D01*
Y9134D01*
X42488D01*
Y9233D01*
X42521D01*
Y9267D01*
X42554D01*
Y9333D01*
X42588D01*
Y9366D01*
X42621D01*
Y9400D01*
X42654D01*
Y9433D01*
X42687D01*
Y9466D01*
X42721D01*
Y9499D01*
X42754D01*
Y9533D01*
X42820D01*
Y9566D01*
X42854D01*
Y9599D01*
X42920D01*
Y9632D01*
X42987D01*
Y9666D01*
X43053D01*
Y9699D01*
X43120D01*
Y9732D01*
X43219D01*
Y9765D01*
X43319D01*
Y9799D01*
X43419D01*
Y9832D01*
X43552D01*
Y9865D01*
X43652D01*
Y9898D01*
X43818D01*
Y9932D01*
X43918D01*
Y9965D01*
X44051D01*
Y9998D01*
X44150D01*
Y10031D01*
X44250D01*
Y10065D01*
X44317D01*
Y10098D01*
X44383D01*
Y10131D01*
X44450D01*
Y10164D01*
X44516D01*
Y10198D01*
X44549D01*
Y10231D01*
X44583D01*
Y10264D01*
X44616D01*
Y10297D01*
X44649D01*
Y10364D01*
X44682D01*
Y10430D01*
X44716D01*
Y10829D01*
X44682D01*
Y10896D01*
X44649D01*
Y10962D01*
X44616D01*
Y10996D01*
X44583D01*
Y11029D01*
X44549D01*
Y11062D01*
X44516D01*
Y11095D01*
X44450D01*
Y11129D01*
X44416D01*
Y11162D01*
X44350D01*
Y11195D01*
X44283D01*
Y11228D01*
X44150D01*
Y11262D01*
X43951D01*
Y11295D01*
X43685D01*
Y11262D01*
X43485D01*
Y11228D01*
X43386D01*
Y11195D01*
X43319D01*
Y11162D01*
X43253D01*
Y11129D01*
X43186D01*
Y11095D01*
X43153D01*
Y11062D01*
X43120D01*
Y11029D01*
X43053D01*
Y10996D01*
X43020D01*
Y10929D01*
X42987D01*
Y10896D01*
X42953D01*
Y10863D01*
X42920D01*
Y10796D01*
X42887D01*
Y10696D01*
X42854D01*
Y10530D01*
X42820D01*
Y10497D01*
X42455D01*
Y10530D01*
X42421D01*
Y10663D01*
X42455D01*
Y10829D01*
X42488D01*
Y10929D01*
X42521D01*
Y10996D01*
X42554D01*
Y11062D01*
X42588D01*
Y11095D01*
X42621D01*
Y11162D01*
X42654D01*
Y11195D01*
X42687D01*
Y11228D01*
X42721D01*
Y11262D01*
X42754D01*
Y11295D01*
X42787D01*
Y11328D01*
X42820D01*
Y11361D01*
X42887D01*
Y11395D01*
X42920D01*
Y11428D01*
X42987D01*
Y11461D01*
X43053D01*
Y11494D01*
X43120D01*
Y11528D01*
X43186D01*
Y11561D01*
X43319D01*
Y11594D01*
X43452D01*
Y11627D01*
X44184D01*
Y11594D01*
D02*
G37*
G36*
X80413Y45912D02*
X50939D01*
Y54232D01*
X80413D01*
Y45912D01*
D02*
G37*
%LPC*%
G36*
X62371Y23930D02*
X61972D01*
Y23897D01*
X61839D01*
Y23863D01*
X61740D01*
Y23830D01*
X61673D01*
Y23797D01*
X61607D01*
Y23764D01*
X61573D01*
Y23730D01*
X61540D01*
Y23697D01*
X61474D01*
Y23664D01*
X61440D01*
Y23631D01*
X61407D01*
Y23564D01*
X61374D01*
Y23531D01*
X61341D01*
Y23498D01*
X61307D01*
Y23431D01*
X61274D01*
Y23365D01*
X61241D01*
Y23298D01*
X61208D01*
Y23232D01*
X61174D01*
Y23132D01*
X61141D01*
Y22999D01*
X61108D01*
Y22833D01*
X61075D01*
Y22467D01*
X61041D01*
Y22234D01*
X61075D01*
Y21868D01*
X61108D01*
Y21702D01*
X61141D01*
Y21669D01*
Y21636D01*
Y21569D01*
X61174D01*
Y21469D01*
X61208D01*
Y21370D01*
X61241D01*
Y21303D01*
X61274D01*
Y21237D01*
X61307D01*
Y21203D01*
X61341D01*
Y21137D01*
X61374D01*
Y21104D01*
X61407D01*
Y21070D01*
X61440D01*
Y21037D01*
X61474D01*
Y21004D01*
X61507D01*
Y20971D01*
X61540D01*
Y20937D01*
X61573D01*
Y20904D01*
X61640D01*
Y20871D01*
X61673D01*
Y20838D01*
X61773D01*
Y20804D01*
X61873D01*
Y20771D01*
X62039D01*
Y20738D01*
X62272D01*
Y20771D01*
X62504D01*
Y20804D01*
X62604D01*
Y20838D01*
X62704D01*
Y20871D01*
X62770D01*
Y20904D01*
X62804D01*
Y20937D01*
X62870D01*
Y20971D01*
X62903D01*
Y21004D01*
X62937D01*
Y21037D01*
X62970D01*
Y21070D01*
X63003D01*
Y21104D01*
X63036D01*
Y21137D01*
X63070D01*
Y21170D01*
X63103D01*
Y21203D01*
X63136D01*
Y21270D01*
X63169D01*
Y21303D01*
X63203D01*
Y21370D01*
X63236D01*
Y21436D01*
X63269D01*
Y23165D01*
X63236D01*
Y23232D01*
X63203D01*
Y23331D01*
X63169D01*
Y23365D01*
X63136D01*
Y23431D01*
X63103D01*
Y23464D01*
X63070D01*
Y23531D01*
X63036D01*
Y23564D01*
X63003D01*
Y23597D01*
X62970D01*
Y23631D01*
X62937D01*
Y23664D01*
X62903D01*
Y23697D01*
X62870D01*
Y23730D01*
X62804D01*
Y23764D01*
X62770D01*
Y23797D01*
X62704D01*
Y23830D01*
X62604D01*
Y23863D01*
X62538D01*
Y23897D01*
X62371D01*
Y23930D01*
D02*
G37*
G36*
X66461D02*
X65996D01*
Y23897D01*
X65863D01*
Y23863D01*
X65763D01*
Y23830D01*
X65696D01*
Y23797D01*
X65630D01*
Y23764D01*
X65563D01*
Y23730D01*
X65530D01*
Y23697D01*
X65464D01*
Y23664D01*
X65430D01*
Y23631D01*
X65397D01*
Y23597D01*
X65364D01*
Y23564D01*
X65331D01*
Y23531D01*
X65297D01*
Y23464D01*
X65264D01*
Y23431D01*
X65231D01*
Y23398D01*
X65198D01*
Y23331D01*
X65164D01*
Y23265D01*
X65131D01*
Y23198D01*
X65098D01*
Y23132D01*
X65065D01*
Y23032D01*
X65031D01*
Y22932D01*
X64998D01*
Y22799D01*
X64965D01*
Y22500D01*
X64932D01*
Y22201D01*
X64965D01*
Y21868D01*
X64998D01*
Y21735D01*
X65031D01*
Y21636D01*
X65065D01*
Y21536D01*
X65098D01*
Y21469D01*
X65131D01*
Y21403D01*
X65164D01*
Y21336D01*
X65198D01*
Y21270D01*
X65231D01*
Y21237D01*
X65264D01*
Y21203D01*
X65297D01*
Y21137D01*
X65331D01*
Y21104D01*
X65364D01*
Y21070D01*
X65397D01*
Y21037D01*
X65430D01*
Y21004D01*
X65464D01*
Y20971D01*
X65530D01*
Y20937D01*
X65563D01*
Y20904D01*
X65630D01*
Y20871D01*
X65696D01*
Y20838D01*
X65763D01*
Y20804D01*
X65863D01*
Y20771D01*
X65996D01*
Y20738D01*
X66428D01*
Y20771D01*
X66561D01*
Y20804D01*
X66661D01*
Y20838D01*
X66727D01*
Y20871D01*
X66794D01*
Y20904D01*
X66860D01*
Y20937D01*
X66893D01*
Y20971D01*
X66927D01*
Y21004D01*
X66993D01*
Y21037D01*
X67026D01*
Y21070D01*
X67060D01*
Y21104D01*
X67093D01*
Y21170D01*
X67126D01*
Y21203D01*
X67159D01*
Y21237D01*
X67193D01*
Y21303D01*
X67226D01*
Y21336D01*
X67259D01*
Y21403D01*
X67292D01*
Y21469D01*
X67326D01*
Y21536D01*
X67359D01*
Y21636D01*
X67392D01*
Y21769D01*
X67425D01*
Y21902D01*
X67459D01*
Y22733D01*
X67425D01*
Y22899D01*
X67392D01*
Y22932D01*
Y22999D01*
X67359D01*
Y23099D01*
X67326D01*
Y23198D01*
X67292D01*
Y23265D01*
X67259D01*
Y23331D01*
X67226D01*
Y23365D01*
X67193D01*
Y23431D01*
X67159D01*
Y23464D01*
X67126D01*
Y23498D01*
X67093D01*
Y23564D01*
X67060D01*
Y23597D01*
X67026D01*
Y23631D01*
X66993D01*
Y23664D01*
X66927D01*
Y23697D01*
X66893D01*
Y23730D01*
X66860D01*
Y23764D01*
X66794D01*
Y23797D01*
X66727D01*
Y23830D01*
X66661D01*
Y23863D01*
X66561D01*
Y23897D01*
X66461D01*
Y23930D01*
D02*
G37*
G36*
X58514D02*
X58049D01*
Y23897D01*
X57916D01*
Y23863D01*
X57816D01*
Y23830D01*
X57750D01*
Y23797D01*
X57683D01*
Y23764D01*
X57617D01*
Y23730D01*
X57583D01*
Y23697D01*
X57550D01*
Y23664D01*
X57484D01*
Y23631D01*
X57450D01*
Y23597D01*
X57417D01*
Y23564D01*
X57384D01*
Y23498D01*
X57351D01*
Y23464D01*
X57317D01*
Y23431D01*
X57284D01*
Y23365D01*
X57251D01*
Y23331D01*
X57218D01*
Y23265D01*
X57184D01*
Y23198D01*
X57151D01*
Y23099D01*
X57118D01*
Y22999D01*
X57085D01*
Y22899D01*
X57051D01*
Y22733D01*
X57018D01*
Y21935D01*
X57051D01*
Y21769D01*
X57085D01*
Y21636D01*
X57118D01*
Y21569D01*
X57151D01*
Y21469D01*
X57184D01*
Y21403D01*
X57218D01*
Y21336D01*
X57251D01*
Y21303D01*
X57284D01*
Y21237D01*
X57317D01*
Y21203D01*
X57351D01*
Y21170D01*
X57384D01*
Y21104D01*
X57417D01*
Y21070D01*
X57450D01*
Y21037D01*
X57484D01*
Y21004D01*
X57550D01*
Y20971D01*
X57583D01*
Y20937D01*
X57617D01*
Y20904D01*
X57683D01*
Y20871D01*
X57750D01*
Y20838D01*
X57816D01*
Y20804D01*
X57916D01*
Y20771D01*
X58049D01*
Y20738D01*
X58481D01*
Y20771D01*
X58614D01*
Y20804D01*
X58714D01*
Y20838D01*
X58780D01*
Y20871D01*
X58847D01*
Y20904D01*
X58913D01*
Y20937D01*
X58947D01*
Y20971D01*
X59013D01*
Y21004D01*
X59046D01*
Y21037D01*
X59080D01*
Y21070D01*
X59113D01*
Y21104D01*
X59146D01*
Y21137D01*
X59179D01*
Y21203D01*
X59213D01*
Y21237D01*
X59246D01*
Y21270D01*
X59279D01*
Y21336D01*
X59312D01*
Y21403D01*
X59346D01*
Y21469D01*
X59379D01*
Y21536D01*
X59412D01*
Y21602D01*
X59445D01*
Y21735D01*
X59479D01*
Y21868D01*
X59512D01*
Y22134D01*
X59545D01*
Y22500D01*
X59512D01*
Y22766D01*
X59479D01*
Y22932D01*
X59445D01*
Y23032D01*
X59412D01*
Y23132D01*
X59379D01*
Y23198D01*
X59346D01*
Y23265D01*
X59312D01*
Y23331D01*
X59279D01*
Y23398D01*
X59246D01*
Y23431D01*
X59213D01*
Y23464D01*
X59179D01*
Y23531D01*
X59146D01*
Y23564D01*
X59113D01*
Y23597D01*
X59080D01*
Y23631D01*
X59046D01*
Y23664D01*
X59013D01*
Y23697D01*
X58947D01*
Y23730D01*
X58913D01*
Y23764D01*
X58847D01*
Y23797D01*
X58814D01*
Y23830D01*
X58714D01*
Y23863D01*
X58647D01*
Y23897D01*
X58514D01*
Y23930D01*
D02*
G37*
G36*
X64898Y15684D02*
X63801D01*
Y14786D01*
X63834D01*
Y14753D01*
X63868D01*
Y14686D01*
X63901D01*
Y14653D01*
X63934D01*
Y14587D01*
X63967D01*
Y14553D01*
X64001D01*
Y14520D01*
X64034D01*
Y14487D01*
X64067D01*
Y14454D01*
X64100D01*
Y14420D01*
X64134D01*
Y14387D01*
X64200D01*
Y14354D01*
X64233D01*
Y14321D01*
X64300D01*
Y14287D01*
X64366D01*
Y14254D01*
X64433D01*
Y14221D01*
X64533D01*
Y14188D01*
X64632D01*
Y14154D01*
X64799D01*
Y14121D01*
X65198D01*
Y14154D01*
X65331D01*
Y14188D01*
X65430D01*
Y14221D01*
X65497D01*
Y14254D01*
X65530D01*
Y14287D01*
X65597D01*
Y14321D01*
X65630D01*
Y14354D01*
X65663D01*
Y14387D01*
X65696D01*
Y14420D01*
X65730D01*
Y14487D01*
X65763D01*
Y14553D01*
X65796D01*
Y14620D01*
X65829D01*
Y14753D01*
X65863D01*
Y14919D01*
Y14952D01*
Y14986D01*
X65829D01*
Y15085D01*
X65796D01*
Y15185D01*
X65763D01*
Y15218D01*
X65730D01*
Y15285D01*
X65696D01*
Y15318D01*
X65663D01*
Y15351D01*
X65630D01*
Y15385D01*
X65597D01*
Y15418D01*
X65530D01*
Y15451D01*
X65497D01*
Y15484D01*
X65430D01*
Y15518D01*
X65364D01*
Y15551D01*
X65297D01*
Y15584D01*
X65198D01*
Y15617D01*
X65065D01*
Y15651D01*
X64898D01*
Y15684D01*
D02*
G37*
G36*
X49404D02*
X48307D01*
Y14819D01*
X48340D01*
Y14753D01*
X48373D01*
Y14720D01*
X48406D01*
Y14653D01*
X48440D01*
Y14620D01*
X48473D01*
Y14587D01*
X48506D01*
Y14520D01*
X48539D01*
Y14487D01*
X48606D01*
Y14454D01*
X48639D01*
Y14420D01*
X48672D01*
Y14387D01*
X48706D01*
Y14354D01*
X48772D01*
Y14321D01*
X48805D01*
Y14287D01*
X48872D01*
Y14254D01*
X48938D01*
Y14221D01*
X49038D01*
Y14188D01*
X49138D01*
Y14154D01*
X49304D01*
Y14121D01*
X49703D01*
Y14154D01*
X49836D01*
Y14188D01*
X49936D01*
Y14221D01*
X50002D01*
Y14254D01*
X50069D01*
Y14287D01*
X50102D01*
Y14321D01*
X50135D01*
Y14354D01*
X50169D01*
Y14387D01*
X50202D01*
Y14420D01*
X50235D01*
Y14454D01*
X50268D01*
Y14520D01*
X50302D01*
Y14587D01*
X50335D01*
Y14686D01*
X50368D01*
Y15052D01*
X50335D01*
Y15152D01*
X50302D01*
Y15218D01*
X50268D01*
Y15252D01*
X50235D01*
Y15285D01*
X50202D01*
Y15318D01*
X50169D01*
Y15351D01*
X50135D01*
Y15385D01*
X50102D01*
Y15418D01*
X50069D01*
Y15451D01*
X50002D01*
Y15484D01*
X49969D01*
Y15518D01*
X49903D01*
Y15551D01*
X49803D01*
Y15584D01*
X49703D01*
Y15617D01*
X49603D01*
Y15651D01*
X49404D01*
Y15684D01*
D02*
G37*
G36*
X43186Y17313D02*
X42920D01*
Y17280D01*
X42754D01*
Y17247D01*
X42654D01*
Y17213D01*
X42588D01*
Y17180D01*
X42521D01*
Y17147D01*
X42488D01*
Y17114D01*
X42421D01*
Y17080D01*
X42388D01*
Y17047D01*
X42355D01*
Y17014D01*
X42322D01*
Y16981D01*
X42288D01*
Y16914D01*
X42255D01*
Y16881D01*
X42222D01*
Y16848D01*
X42189D01*
Y16781D01*
X42155D01*
Y16715D01*
X42122D01*
Y16648D01*
X42089D01*
Y16548D01*
X42056D01*
Y16449D01*
X42022D01*
Y16282D01*
X41989D01*
Y16050D01*
X44250D01*
Y16116D01*
X44217D01*
Y16282D01*
X44184D01*
Y16415D01*
X44150D01*
Y16515D01*
X44117D01*
Y16582D01*
X44084D01*
Y16648D01*
X44051D01*
Y16715D01*
X44017D01*
Y16781D01*
X43984D01*
Y16814D01*
X43951D01*
Y16848D01*
X43918D01*
Y16914D01*
X43884D01*
Y16947D01*
X43851D01*
Y16981D01*
X43818D01*
Y17014D01*
X43785D01*
Y17047D01*
X43751D01*
Y17080D01*
X43685D01*
Y17114D01*
X43652D01*
Y17147D01*
X43585D01*
Y17180D01*
X43552D01*
Y17213D01*
X43452D01*
Y17247D01*
X43352D01*
Y17280D01*
X43186D01*
Y17313D01*
D02*
G37*
G36*
X58614D02*
X58481D01*
Y17280D01*
X58248D01*
Y17247D01*
X58149D01*
Y17213D01*
X58082D01*
Y17180D01*
X58016D01*
Y17147D01*
X57949D01*
Y17114D01*
X57883D01*
Y17080D01*
X57849D01*
Y17047D01*
X57816D01*
Y17014D01*
X57783D01*
Y16981D01*
X57750D01*
Y16947D01*
X57716D01*
Y16914D01*
X57683D01*
Y16881D01*
X57650D01*
Y16814D01*
X57617D01*
Y16781D01*
X57583D01*
Y16715D01*
X57550D01*
Y16681D01*
X57517D01*
Y16615D01*
X57484D01*
Y14753D01*
X57517D01*
Y14686D01*
X57550D01*
Y14653D01*
X57583D01*
Y14587D01*
X57617D01*
Y14553D01*
X57650D01*
Y14520D01*
X57683D01*
Y14454D01*
X57716D01*
Y14420D01*
X57750D01*
Y14387D01*
X57816D01*
Y14354D01*
X57849D01*
Y14321D01*
X57883D01*
Y14287D01*
X57949D01*
Y14254D01*
X58016D01*
Y14221D01*
X58082D01*
Y14188D01*
X58182D01*
Y14154D01*
X58315D01*
Y14121D01*
X58780D01*
Y14154D01*
X58913D01*
Y14188D01*
X59013D01*
Y14221D01*
X59080D01*
Y14254D01*
X59113D01*
Y14287D01*
X59179D01*
Y14321D01*
X59213D01*
Y14354D01*
X59246D01*
Y14387D01*
X59279D01*
Y14420D01*
X59312D01*
Y14454D01*
X59346D01*
Y14487D01*
X59379D01*
Y14553D01*
X59412D01*
Y14587D01*
X59445D01*
Y14653D01*
X59479D01*
Y14720D01*
X59512D01*
Y14786D01*
X59545D01*
Y14886D01*
X59578D01*
Y14986D01*
X59612D01*
Y15152D01*
X59645D01*
Y15385D01*
X59678D01*
Y15983D01*
X59645D01*
Y16249D01*
X59612D01*
Y16415D01*
X59578D01*
Y16515D01*
X59545D01*
Y16615D01*
X59512D01*
Y16681D01*
X59479D01*
Y16748D01*
X59445D01*
Y16814D01*
X59412D01*
Y16848D01*
X59379D01*
Y16914D01*
X59346D01*
Y16947D01*
X59312D01*
Y16981D01*
X59279D01*
Y17014D01*
X59246D01*
Y17047D01*
X59213D01*
Y17080D01*
X59179D01*
Y17114D01*
X59146D01*
Y17147D01*
X59080D01*
Y17180D01*
X59013D01*
Y17213D01*
X58947D01*
Y17247D01*
X58847D01*
Y17280D01*
X58614D01*
Y17313D01*
D02*
G37*
G36*
X81004Y21806D02*
X80738D01*
Y21773D01*
X80671D01*
Y21739D01*
X80638D01*
Y21706D01*
X80605D01*
Y21673D01*
X80572D01*
Y21640D01*
X80538D01*
Y21540D01*
X80505D01*
Y21041D01*
X80472D01*
Y21008D01*
X80239D01*
Y21041D01*
X80206D01*
Y21075D01*
Y21108D01*
Y21540D01*
X80173D01*
Y21640D01*
X80139D01*
Y21673D01*
X80106D01*
Y21706D01*
X80073D01*
Y21739D01*
X80040D01*
Y21773D01*
X79973D01*
Y21806D01*
X79707D01*
Y21773D01*
X79641D01*
Y21739D01*
X79574D01*
Y21706D01*
X79541D01*
Y21640D01*
X79508D01*
Y21573D01*
X79474D01*
Y21041D01*
X79441D01*
Y21008D01*
X79175D01*
Y21474D01*
X79142D01*
Y21607D01*
X79109D01*
Y21640D01*
X79075D01*
Y21706D01*
X79042D01*
Y21739D01*
X78976D01*
Y21773D01*
X78909D01*
Y21806D01*
X78643D01*
Y21773D01*
X78577D01*
Y21739D01*
X78543D01*
Y21706D01*
X78510D01*
Y21673D01*
X78477D01*
Y21607D01*
X78444D01*
Y21507D01*
X78410D01*
Y21041D01*
X78377D01*
Y21008D01*
X77380D01*
Y17218D01*
X77413D01*
Y17051D01*
X77446D01*
Y16951D01*
X77479D01*
Y16852D01*
X77513D01*
Y16785D01*
X77546D01*
Y16719D01*
X77579D01*
Y16652D01*
X77612D01*
Y16619D01*
X77646D01*
Y16553D01*
X77679D01*
Y16519D01*
X77712D01*
Y16486D01*
X77745D01*
Y16453D01*
X77779D01*
Y16420D01*
X77812D01*
Y16386D01*
X77845D01*
Y16353D01*
X77878D01*
Y16320D01*
X77912D01*
Y16286D01*
X77978D01*
Y16253D01*
X78011D01*
Y16220D01*
X78078D01*
Y16187D01*
X78144D01*
Y16153D01*
X78244D01*
Y16120D01*
X78344D01*
Y16087D01*
X78510D01*
Y16054D01*
X82301D01*
Y17085D01*
X82334D01*
Y17118D01*
X82866D01*
Y17151D01*
X82932D01*
Y17184D01*
X82999D01*
Y17251D01*
X83032D01*
Y17284D01*
X83065D01*
Y17384D01*
X83099D01*
Y17583D01*
X83065D01*
Y17650D01*
X83032D01*
Y17716D01*
X82999D01*
Y17750D01*
X82966D01*
Y17783D01*
X82899D01*
Y17816D01*
X82833D01*
Y17849D01*
X82301D01*
Y18148D01*
X82833D01*
Y18182D01*
X82899D01*
Y18215D01*
X82966D01*
Y18248D01*
X82999D01*
Y18282D01*
X83032D01*
Y18348D01*
X83065D01*
Y18415D01*
X83099D01*
Y18614D01*
X83065D01*
Y18714D01*
X83032D01*
Y18747D01*
X82999D01*
Y18780D01*
X82966D01*
Y18813D01*
X82932D01*
Y18847D01*
X82866D01*
Y18880D01*
X82334D01*
Y18913D01*
X82301D01*
Y19179D01*
X82733D01*
Y19212D01*
X82899D01*
Y19246D01*
X82932D01*
Y19279D01*
X82999D01*
Y19312D01*
X83032D01*
Y19379D01*
X83065D01*
Y19445D01*
X83099D01*
Y19678D01*
X83065D01*
Y19745D01*
X83032D01*
Y19811D01*
X82999D01*
Y19844D01*
X82966D01*
Y19877D01*
X82899D01*
Y19911D01*
X82799D01*
Y19944D01*
X82301D01*
Y21008D01*
X81270D01*
Y21041D01*
X81237D01*
Y21573D01*
X81203D01*
Y21640D01*
X81170D01*
Y21706D01*
X81137D01*
Y21739D01*
X81070D01*
Y21773D01*
X81004D01*
Y21806D01*
D02*
G37*
G36*
X65065Y11295D02*
X64832D01*
Y11262D01*
X64632D01*
Y11228D01*
X64499D01*
Y11195D01*
X64433D01*
Y11162D01*
X64366D01*
Y11129D01*
X64300D01*
Y11095D01*
X64267D01*
Y11062D01*
X64200D01*
Y11029D01*
X64167D01*
Y10996D01*
X64134D01*
Y10962D01*
X64100D01*
Y10929D01*
X64067D01*
Y10896D01*
X64034D01*
Y10863D01*
X64001D01*
Y10796D01*
X63967D01*
Y10763D01*
X63934D01*
Y10696D01*
X63901D01*
Y10663D01*
X63868D01*
Y10597D01*
X63834D01*
Y10530D01*
X63801D01*
Y10430D01*
X63768D01*
Y10331D01*
X63735D01*
Y10231D01*
X63701D01*
Y10031D01*
X63668D01*
Y9333D01*
X63701D01*
Y9167D01*
X63735D01*
Y9034D01*
X63768D01*
Y8934D01*
X63801D01*
Y8834D01*
X63834D01*
Y8768D01*
X63868D01*
Y8701D01*
X63901D01*
Y8668D01*
X63934D01*
Y8602D01*
X63967D01*
Y8568D01*
X64001D01*
Y8502D01*
X64034D01*
Y8469D01*
X64067D01*
Y8435D01*
X64100D01*
Y8402D01*
X64134D01*
Y8369D01*
X64167D01*
Y8336D01*
X64200D01*
Y8302D01*
X64267D01*
Y8269D01*
X64300D01*
Y8236D01*
X64366D01*
Y8203D01*
X64433D01*
Y8169D01*
X64533D01*
Y8136D01*
X64632D01*
Y8103D01*
X64865D01*
Y8070D01*
X64998D01*
Y8103D01*
X65231D01*
Y8136D01*
X65331D01*
Y8169D01*
X65430D01*
Y8203D01*
X65497D01*
Y8236D01*
X65530D01*
Y8269D01*
X65597D01*
Y8302D01*
X65630D01*
Y8336D01*
X65663D01*
Y8369D01*
X65730D01*
Y8402D01*
X65763D01*
Y8435D01*
X65796D01*
Y8502D01*
X65829D01*
Y8535D01*
X65863D01*
Y8568D01*
X65896D01*
Y8602D01*
X65929D01*
Y8668D01*
X65962D01*
Y8735D01*
X65996D01*
Y8801D01*
X66029D01*
Y8868D01*
X66062D01*
Y8901D01*
Y8934D01*
X66095D01*
Y9034D01*
X66129D01*
Y9167D01*
X66162D01*
Y9400D01*
X66195D01*
Y9965D01*
X66162D01*
Y10164D01*
X66129D01*
Y10297D01*
X66095D01*
Y10430D01*
X66062D01*
Y10497D01*
X66029D01*
Y10563D01*
X65996D01*
Y10630D01*
X65962D01*
Y10696D01*
X65929D01*
Y10730D01*
X65896D01*
Y10796D01*
X65863D01*
Y10829D01*
X65829D01*
Y10863D01*
X65796D01*
Y10929D01*
X65763D01*
Y10962D01*
X65730D01*
Y10996D01*
X65696D01*
Y11029D01*
X65630D01*
Y11062D01*
X65597D01*
Y11095D01*
X65563D01*
Y11129D01*
X65497D01*
Y11162D01*
X65430D01*
Y11195D01*
X65364D01*
Y11228D01*
X65231D01*
Y11262D01*
X65065D01*
Y11295D01*
D02*
G37*
G36*
X51665D02*
X51432D01*
Y11262D01*
X51233D01*
Y11228D01*
X51133D01*
Y11195D01*
X51033D01*
Y11162D01*
X50967D01*
Y11129D01*
X50933D01*
Y11095D01*
X50867D01*
Y11062D01*
X50834D01*
Y11029D01*
X50800D01*
Y10996D01*
X50734D01*
Y10962D01*
X50701D01*
Y10929D01*
X50667D01*
Y10863D01*
X50634D01*
Y10829D01*
X50601D01*
Y10796D01*
X50568D01*
Y10730D01*
X50534D01*
Y10696D01*
X50501D01*
Y10630D01*
X50468D01*
Y10563D01*
X50435D01*
Y10497D01*
X50401D01*
Y10397D01*
X50368D01*
Y10297D01*
X50335D01*
Y10164D01*
X50302D01*
Y9932D01*
X50268D01*
Y9466D01*
X50302D01*
Y9200D01*
X50335D01*
Y9067D01*
X50368D01*
Y8967D01*
X50401D01*
Y8934D01*
Y8868D01*
X50435D01*
Y8801D01*
X50468D01*
Y8735D01*
X50501D01*
Y8668D01*
X50534D01*
Y8635D01*
X50568D01*
Y8568D01*
X50601D01*
Y8535D01*
X50634D01*
Y8502D01*
X50667D01*
Y8469D01*
X50701D01*
Y8435D01*
X50734D01*
Y8402D01*
X50767D01*
Y8369D01*
X50800D01*
Y8336D01*
X50834D01*
Y8302D01*
X50867D01*
Y8269D01*
X50933D01*
Y8236D01*
X50967D01*
Y8203D01*
X51033D01*
Y8169D01*
X51133D01*
Y8136D01*
X51233D01*
Y8103D01*
X51465D01*
Y8070D01*
X51598D01*
Y8103D01*
X51831D01*
Y8136D01*
X51964D01*
Y8169D01*
X52031D01*
Y8203D01*
X52097D01*
Y8236D01*
X52164D01*
Y8269D01*
X52197D01*
Y8302D01*
X52263D01*
Y8336D01*
X52297D01*
Y8369D01*
X52330D01*
Y8402D01*
X52363D01*
Y8435D01*
X52396D01*
Y8469D01*
X52430D01*
Y8502D01*
X52463D01*
Y8568D01*
X52496D01*
Y8602D01*
X52529D01*
Y8635D01*
X52563D01*
Y8701D01*
X52596D01*
Y8768D01*
X52629D01*
Y8834D01*
X52662D01*
Y8901D01*
X52696D01*
Y9001D01*
X52729D01*
Y9100D01*
X52762D01*
Y9267D01*
X52795D01*
Y10065D01*
X52762D01*
Y10231D01*
X52729D01*
Y10364D01*
X52696D01*
Y10464D01*
X52662D01*
Y10530D01*
X52629D01*
Y10597D01*
X52596D01*
Y10663D01*
X52563D01*
Y10730D01*
X52529D01*
Y10763D01*
X52496D01*
Y10796D01*
X52463D01*
Y10863D01*
X52430D01*
Y10896D01*
X52396D01*
Y10929D01*
X52363D01*
Y10962D01*
X52330D01*
Y10996D01*
X52297D01*
Y11029D01*
X52263D01*
Y11062D01*
X52197D01*
Y11095D01*
X52164D01*
Y11129D01*
X52097D01*
Y11162D01*
X52031D01*
Y11195D01*
X51964D01*
Y11228D01*
X51864D01*
Y11262D01*
X51665D01*
Y11295D01*
D02*
G37*
G36*
X59665Y52658D02*
X56325D01*
D01*
X58039D01*
X58001Y52653D01*
X57955D01*
X57897Y52645D01*
X57831Y52637D01*
X57756Y52624D01*
X57677Y52612D01*
X57589Y52591D01*
X57502Y52566D01*
X57410Y52537D01*
X57323Y52499D01*
X57232Y52458D01*
X57144Y52408D01*
X57061Y52350D01*
X56982Y52283D01*
X56978Y52279D01*
X56965Y52266D01*
X56945Y52246D01*
X56920Y52217D01*
X56886Y52179D01*
X56853Y52133D01*
X56815Y52083D01*
X56778Y52025D01*
X56741Y51959D01*
X56703Y51888D01*
X56670Y51809D01*
X56637Y51722D01*
X56612Y51634D01*
X56591Y51534D01*
X56578Y51434D01*
X56574Y51326D01*
Y51322D01*
Y51310D01*
Y51293D01*
X56578Y51268D01*
Y51239D01*
X56583Y51206D01*
X56591Y51168D01*
X56595Y51122D01*
X56616Y51027D01*
X56649Y50923D01*
X56695Y50810D01*
X56720Y50752D01*
X56753Y50698D01*
Y50694D01*
X56761Y50686D01*
X56770Y50669D01*
X56786Y50652D01*
X56828Y50602D01*
X56882Y50540D01*
X56953Y50478D01*
X57040Y50415D01*
X57140Y50361D01*
X57194Y50340D01*
X57252Y50324D01*
X57248D01*
X57236Y50320D01*
X57211Y50315D01*
X57182Y50307D01*
X57148Y50295D01*
X57107Y50282D01*
X57061Y50266D01*
X57011Y50245D01*
X56961Y50220D01*
X56907Y50186D01*
X56849Y50153D01*
X56795Y50112D01*
X56736Y50066D01*
X56682Y50016D01*
X56633Y49958D01*
X56583Y49895D01*
X56578Y49891D01*
X56570Y49879D01*
X56558Y49858D01*
X56541Y49833D01*
X56524Y49800D01*
X56499Y49758D01*
X56479Y49712D01*
X56454Y49658D01*
X56429Y49600D01*
X56408Y49538D01*
X56383Y49471D01*
X56366Y49400D01*
X56350Y49321D01*
X56337Y49242D01*
X56329Y49159D01*
X56325Y49072D01*
Y49076D01*
Y49042D01*
X56329Y49005D01*
X56333Y48955D01*
X56341Y48893D01*
X56350Y48826D01*
X56366Y48747D01*
X56387Y48664D01*
X56412Y48572D01*
X56445Y48481D01*
X56483Y48385D01*
X56529Y48289D01*
X56587Y48194D01*
X56649Y48098D01*
X56724Y48011D01*
X56811Y47923D01*
X56815Y47919D01*
X56832Y47907D01*
X56861Y47882D01*
X56899Y47857D01*
X56945Y47824D01*
X57003Y47786D01*
X57065Y47745D01*
X57140Y47707D01*
X57223Y47666D01*
X57315Y47624D01*
X57415Y47586D01*
X57519Y47553D01*
X57631Y47528D01*
X57752Y47507D01*
X57876Y47491D01*
X58005Y47487D01*
X58039D01*
X58076Y47491D01*
X58126Y47495D01*
X58184Y47499D01*
X58255Y47507D01*
X58334Y47520D01*
X58421Y47537D01*
X58509Y47557D01*
X58604Y47582D01*
X58700Y47616D01*
X58800Y47653D01*
X58900Y47695D01*
X58995Y47749D01*
X59087Y47807D01*
X59174Y47878D01*
X59178Y47882D01*
X59195Y47894D01*
X59216Y47919D01*
X59245Y47948D01*
X59282Y47990D01*
X59320Y48040D01*
X59361Y48098D01*
X59407Y48165D01*
X59449Y48240D01*
X59495Y48323D01*
X59536Y48410D01*
X59574Y48510D01*
X59607Y48618D01*
X59632Y48735D01*
X59653Y48859D01*
X59665Y48988D01*
X58875D01*
Y48984D01*
Y48972D01*
Y48951D01*
X58871Y48922D01*
X58866Y48888D01*
X58862Y48847D01*
X58858Y48805D01*
X58846Y48755D01*
X58821Y48656D01*
X58783Y48547D01*
X58758Y48493D01*
X58725Y48443D01*
X58692Y48393D01*
X58654Y48348D01*
X58650Y48344D01*
X58642Y48339D01*
X58629Y48327D01*
X58613Y48310D01*
X58588Y48294D01*
X58563Y48273D01*
X58525Y48252D01*
X58488Y48231D01*
X58446Y48206D01*
X58396Y48186D01*
X58342Y48165D01*
X58284Y48148D01*
X58222Y48131D01*
X58155Y48119D01*
X58084Y48115D01*
X58005Y48111D01*
X57968D01*
X57939Y48115D01*
X57906Y48119D01*
X57864Y48123D01*
X57822Y48131D01*
X57772Y48144D01*
X57668Y48173D01*
X57618Y48198D01*
X57564Y48223D01*
X57510Y48252D01*
X57456Y48285D01*
X57406Y48327D01*
X57361Y48373D01*
X57356Y48377D01*
X57348Y48385D01*
X57340Y48402D01*
X57323Y48418D01*
X57302Y48448D01*
X57282Y48477D01*
X57261Y48514D01*
X57236Y48556D01*
X57215Y48606D01*
X57194Y48656D01*
X57173Y48714D01*
X57152Y48772D01*
X57136Y48839D01*
X57127Y48909D01*
X57119Y48980D01*
X57115Y49059D01*
Y49063D01*
Y49080D01*
Y49101D01*
X57119Y49130D01*
X57123Y49163D01*
X57127Y49205D01*
X57136Y49250D01*
X57148Y49300D01*
X57178Y49404D01*
X57198Y49458D01*
X57223Y49512D01*
X57252Y49567D01*
X57286Y49617D01*
X57323Y49666D01*
X57369Y49712D01*
X57373Y49716D01*
X57381Y49720D01*
X57394Y49733D01*
X57415Y49750D01*
X57440Y49766D01*
X57473Y49783D01*
X57510Y49804D01*
X57556Y49829D01*
X57602Y49850D01*
X57660Y49870D01*
X57718Y49887D01*
X57785Y49904D01*
X57856Y49920D01*
X57935Y49933D01*
X58018Y49937D01*
X58105Y49941D01*
X58417D01*
Y50569D01*
X58163D01*
X58122Y50573D01*
X58068Y50582D01*
X58005Y50594D01*
X57935Y50611D01*
X57860Y50636D01*
X57781Y50665D01*
X57702Y50706D01*
X57627Y50756D01*
X57556Y50819D01*
X57494Y50894D01*
X57440Y50981D01*
X57398Y51085D01*
X57381Y51143D01*
X57369Y51201D01*
X57365Y51268D01*
X57361Y51339D01*
Y51343D01*
Y51355D01*
Y51372D01*
X57365Y51393D01*
Y51422D01*
X57369Y51455D01*
X57381Y51530D01*
X57402Y51613D01*
X57435Y51696D01*
X57481Y51780D01*
X57506Y51817D01*
X57539Y51850D01*
Y51855D01*
X57548Y51859D01*
X57573Y51880D01*
X57614Y51909D01*
X57668Y51942D01*
X57743Y51971D01*
X57831Y52000D01*
X57935Y52021D01*
X57989Y52029D01*
X58080D01*
X58113Y52025D01*
X58159Y52017D01*
X58213Y52004D01*
X58272Y51988D01*
X58334Y51963D01*
X58405Y51934D01*
X58471Y51892D01*
X58538Y51842D01*
X58604Y51780D01*
X58663Y51705D01*
X58717Y51613D01*
X58762Y51509D01*
X58783Y51455D01*
X58796Y51393D01*
X58812Y51326D01*
X58821Y51256D01*
X59599D01*
Y51260D01*
Y51264D01*
X59594Y51289D01*
X59590Y51326D01*
X59582Y51372D01*
X59570Y51434D01*
X59553Y51501D01*
X59536Y51576D01*
X59511Y51659D01*
X59482Y51742D01*
X59445Y51830D01*
X59407Y51921D01*
X59361Y52008D01*
X59307Y52092D01*
X59245Y52175D01*
X59178Y52250D01*
X59104Y52316D01*
X59099Y52320D01*
X59083Y52333D01*
X59062Y52350D01*
X59029Y52370D01*
X58987Y52395D01*
X58937Y52425D01*
X58879Y52454D01*
X58816Y52487D01*
X58742Y52520D01*
X58663Y52549D01*
X58579Y52578D01*
X58488Y52603D01*
X58392Y52624D01*
X58288Y52645D01*
X58180Y52653D01*
X58068Y52658D01*
X59665D01*
D01*
D02*
G37*
G36*
X78839Y52108D02*
Y51231D01*
X78402D01*
Y52108D01*
X78839D01*
X76979D01*
Y47520D01*
Y47570D01*
X76991D01*
X77004Y47566D01*
X77025Y47561D01*
X77050Y47557D01*
X77079Y47553D01*
X77145Y47545D01*
X77224Y47537D01*
X77312Y47528D01*
X77403Y47524D01*
X77499Y47520D01*
X76979D01*
X78839D01*
X77536D01*
X77566Y47524D01*
X77599D01*
X77640Y47528D01*
X77682Y47532D01*
X77728Y47541D01*
X77828Y47557D01*
X77932Y47582D01*
X78027Y47620D01*
X78069Y47645D01*
X78111Y47670D01*
X78115D01*
X78119Y47678D01*
X78144Y47699D01*
X78177Y47732D01*
X78215Y47774D01*
X78256Y47832D01*
X78298Y47894D01*
X78331Y47969D01*
X78356Y48052D01*
Y48057D01*
Y48065D01*
X78360Y48077D01*
X78364Y48094D01*
X78369Y48119D01*
Y48148D01*
X78373Y48181D01*
X78377Y48219D01*
X78381Y48260D01*
X78385Y48306D01*
X78389Y48356D01*
X78394Y48410D01*
X78398Y48531D01*
X78402Y48668D01*
Y50598D01*
X78839D01*
Y52108D01*
D02*
G37*
G36*
X76904D02*
Y51231D01*
X76467D01*
Y52108D01*
X76904D01*
X75045D01*
Y47520D01*
Y47570D01*
X75057D01*
X75070Y47566D01*
X75090Y47561D01*
X75115Y47557D01*
X75144Y47553D01*
X75211Y47545D01*
X75290Y47537D01*
X75378Y47528D01*
X75469Y47524D01*
X75565Y47520D01*
X75045D01*
X76904D01*
X75602D01*
X75631Y47524D01*
X75665D01*
X75706Y47528D01*
X75748Y47532D01*
X75793Y47541D01*
X75893Y47557D01*
X75997Y47582D01*
X76093Y47620D01*
X76135Y47645D01*
X76176Y47670D01*
X76180D01*
X76184Y47678D01*
X76209Y47699D01*
X76243Y47732D01*
X76280Y47774D01*
X76322Y47832D01*
X76363Y47894D01*
X76397Y47969D01*
X76422Y48052D01*
Y48057D01*
Y48065D01*
X76426Y48077D01*
X76430Y48094D01*
X76434Y48119D01*
Y48148D01*
X76438Y48181D01*
X76442Y48219D01*
X76447Y48260D01*
X76451Y48306D01*
X76455Y48356D01*
X76459Y48410D01*
X76463Y48531D01*
X76467Y48668D01*
Y50598D01*
X76904D01*
Y52108D01*
D02*
G37*
G36*
X71517Y52658D02*
X69915D01*
X71484D01*
X71446Y52653D01*
X71392Y52649D01*
X71330Y52645D01*
X71255Y52637D01*
X71176Y52624D01*
X71088Y52608D01*
X70997Y52583D01*
X70901Y52558D01*
X70802Y52524D01*
X70706Y52483D01*
X70610Y52437D01*
X70519Y52383D01*
X70431Y52316D01*
X70348Y52246D01*
X70344Y52241D01*
X70331Y52225D01*
X70311Y52204D01*
X70281Y52171D01*
X70252Y52133D01*
X70215Y52083D01*
X70178Y52025D01*
X70136Y51963D01*
X70098Y51892D01*
X70061Y51813D01*
X70024Y51730D01*
X69994Y51638D01*
X69965Y51543D01*
X69945Y51443D01*
X69932Y51335D01*
X69928Y51222D01*
Y51218D01*
Y51197D01*
Y51168D01*
X69932Y51131D01*
X69936Y51081D01*
X69945Y51027D01*
X69953Y50960D01*
X69965Y50894D01*
X69982Y50819D01*
X70003Y50740D01*
X70028Y50661D01*
X70057Y50577D01*
X70090Y50494D01*
X70132Y50407D01*
X70178Y50324D01*
X70232Y50245D01*
X70236Y50240D01*
X70248Y50224D01*
X70265Y50203D01*
X70294Y50170D01*
X70327Y50124D01*
X70373Y50074D01*
X70427Y50012D01*
X70490Y49945D01*
X70564Y49866D01*
X70648Y49783D01*
X70743Y49687D01*
X70851Y49587D01*
X70968Y49479D01*
X71101Y49359D01*
X71242Y49238D01*
X71396Y49105D01*
X71400D01*
X71405Y49097D01*
X71417Y49088D01*
X71434Y49076D01*
X71475Y49038D01*
X71530Y48992D01*
X71596Y48934D01*
X71671Y48872D01*
X71746Y48805D01*
X71829Y48735D01*
X71908Y48660D01*
X71987Y48589D01*
X72062Y48518D01*
X72128Y48456D01*
X72183Y48398D01*
X72228Y48348D01*
X72245Y48327D01*
X72258Y48310D01*
X72266Y48294D01*
X72270Y48281D01*
X69915D01*
Y47566D01*
X73285D01*
Y47620D01*
X73281Y47657D01*
X73277Y47703D01*
X73268Y47757D01*
X73260Y47815D01*
X73248Y47886D01*
X73235Y47957D01*
X73214Y48032D01*
X73194Y48111D01*
X73164Y48190D01*
X73131Y48273D01*
X73094Y48356D01*
X73052Y48435D01*
X73002Y48514D01*
X72998Y48518D01*
X72990Y48535D01*
X72969Y48556D01*
X72944Y48589D01*
X72915Y48631D01*
X72873Y48680D01*
X72823Y48735D01*
X72765Y48797D01*
X72703Y48868D01*
X72628Y48947D01*
X72540Y49030D01*
X72449Y49121D01*
X72345Y49213D01*
X72233Y49313D01*
X72112Y49421D01*
X71979Y49529D01*
X71975D01*
X71970Y49538D01*
X71946Y49554D01*
X71908Y49587D01*
X71858Y49629D01*
X71800Y49679D01*
X71733Y49737D01*
X71658Y49800D01*
X71579Y49870D01*
X71413Y50020D01*
X71247Y50174D01*
X71172Y50253D01*
X71097Y50328D01*
X71034Y50399D01*
X70980Y50465D01*
X70976Y50469D01*
X70968Y50482D01*
X70955Y50498D01*
X70939Y50528D01*
X70918Y50557D01*
X70897Y50598D01*
X70872Y50640D01*
X70847Y50690D01*
X70822Y50744D01*
X70797Y50806D01*
X70776Y50869D01*
X70756Y50935D01*
X70739Y51006D01*
X70727Y51081D01*
X70718Y51156D01*
X70714Y51235D01*
Y51239D01*
Y51251D01*
Y51272D01*
X70718Y51297D01*
X70722Y51326D01*
X70727Y51364D01*
X70739Y51447D01*
X70768Y51538D01*
X70806Y51638D01*
X70831Y51684D01*
X70860Y51730D01*
X70893Y51776D01*
X70930Y51817D01*
X70935Y51821D01*
X70939Y51825D01*
X70951Y51838D01*
X70968Y51850D01*
X70993Y51867D01*
X71018Y51884D01*
X71051Y51904D01*
X71084Y51925D01*
X71126Y51942D01*
X71172Y51963D01*
X71222Y51979D01*
X71276Y51996D01*
X71334Y52008D01*
X71396Y52021D01*
X71463Y52025D01*
X71534Y52029D01*
X71567D01*
X71592Y52025D01*
X71621Y52021D01*
X71654Y52017D01*
X71733Y52004D01*
X71821Y51975D01*
X71921Y51938D01*
X71970Y51913D01*
X72016Y51884D01*
X72066Y51850D01*
X72112Y51813D01*
X72116Y51809D01*
X72120Y51805D01*
X72133Y51792D01*
X72149Y51771D01*
X72166Y51751D01*
X72187Y51722D01*
X72212Y51684D01*
X72237Y51647D01*
X72258Y51601D01*
X72282Y51547D01*
X72307Y51493D01*
X72328Y51426D01*
X72349Y51355D01*
X72366Y51280D01*
X72378Y51197D01*
X72386Y51110D01*
X73168D01*
Y51114D01*
Y51118D01*
X73164Y51143D01*
X73160Y51181D01*
X73152Y51235D01*
X73144Y51293D01*
X73127Y51368D01*
X73110Y51447D01*
X73085Y51534D01*
X73056Y51622D01*
X73023Y51717D01*
X72986Y51813D01*
X72936Y51909D01*
X72882Y52000D01*
X72823Y52092D01*
X72752Y52175D01*
X72673Y52254D01*
X72669Y52258D01*
X72653Y52271D01*
X72628Y52291D01*
X72594Y52316D01*
X72549Y52350D01*
X72495Y52383D01*
X72432Y52416D01*
X72361Y52458D01*
X72282Y52495D01*
X72199Y52529D01*
X72104Y52566D01*
X72000Y52595D01*
X71887Y52620D01*
X71771Y52641D01*
X71646Y52653D01*
X71517Y52658D01*
D02*
G37*
G36*
X61853D02*
X60252D01*
X61820D01*
X61783Y52653D01*
X61729Y52649D01*
X61666Y52645D01*
X61591Y52637D01*
X61512Y52624D01*
X61425Y52608D01*
X61333Y52583D01*
X61238Y52558D01*
X61138Y52524D01*
X61042Y52483D01*
X60946Y52437D01*
X60855Y52383D01*
X60768Y52316D01*
X60684Y52246D01*
X60680Y52241D01*
X60668Y52225D01*
X60647Y52204D01*
X60618Y52171D01*
X60589Y52133D01*
X60551Y52083D01*
X60514Y52025D01*
X60472Y51963D01*
X60435Y51892D01*
X60397Y51813D01*
X60360Y51730D01*
X60331Y51638D01*
X60302Y51543D01*
X60281Y51443D01*
X60268Y51335D01*
X60264Y51222D01*
Y51218D01*
Y51197D01*
Y51168D01*
X60268Y51131D01*
X60273Y51081D01*
X60281Y51027D01*
X60289Y50960D01*
X60302Y50894D01*
X60318Y50819D01*
X60339Y50740D01*
X60364Y50661D01*
X60393Y50577D01*
X60426Y50494D01*
X60468Y50407D01*
X60514Y50324D01*
X60568Y50245D01*
X60572Y50240D01*
X60584Y50224D01*
X60601Y50203D01*
X60630Y50170D01*
X60663Y50124D01*
X60709Y50074D01*
X60763Y50012D01*
X60826Y49945D01*
X60901Y49866D01*
X60984Y49783D01*
X61080Y49687D01*
X61188Y49587D01*
X61304Y49479D01*
X61437Y49359D01*
X61579Y49238D01*
X61733Y49105D01*
X61737D01*
X61741Y49097D01*
X61753Y49088D01*
X61770Y49076D01*
X61812Y49038D01*
X61866Y48992D01*
X61932Y48934D01*
X62007Y48872D01*
X62082Y48805D01*
X62165Y48735D01*
X62244Y48660D01*
X62323Y48589D01*
X62398Y48518D01*
X62465Y48456D01*
X62519Y48398D01*
X62565Y48348D01*
X62581Y48327D01*
X62594Y48310D01*
X62602Y48294D01*
X62606Y48281D01*
X60252D01*
Y47566D01*
X63621D01*
Y47620D01*
X63617Y47657D01*
X63613Y47703D01*
X63605Y47757D01*
X63596Y47815D01*
X63584Y47886D01*
X63571Y47957D01*
X63551Y48032D01*
X63530Y48111D01*
X63501Y48190D01*
X63467Y48273D01*
X63430Y48356D01*
X63388Y48435D01*
X63338Y48514D01*
X63334Y48518D01*
X63326Y48535D01*
X63305Y48556D01*
X63280Y48589D01*
X63251Y48631D01*
X63209Y48680D01*
X63160Y48735D01*
X63101Y48797D01*
X63039Y48868D01*
X62964Y48947D01*
X62877Y49030D01*
X62785Y49121D01*
X62681Y49213D01*
X62569Y49313D01*
X62448Y49421D01*
X62315Y49529D01*
X62311D01*
X62307Y49538D01*
X62282Y49554D01*
X62244Y49587D01*
X62194Y49629D01*
X62136Y49679D01*
X62070Y49737D01*
X61995Y49800D01*
X61916Y49870D01*
X61749Y50020D01*
X61583Y50174D01*
X61508Y50253D01*
X61433Y50328D01*
X61371Y50399D01*
X61317Y50465D01*
X61313Y50469D01*
X61304Y50482D01*
X61292Y50498D01*
X61275Y50528D01*
X61254Y50557D01*
X61234Y50598D01*
X61208Y50640D01*
X61184Y50690D01*
X61159Y50744D01*
X61134Y50806D01*
X61113Y50869D01*
X61092Y50935D01*
X61075Y51006D01*
X61063Y51081D01*
X61055Y51156D01*
X61050Y51235D01*
Y51239D01*
Y51251D01*
Y51272D01*
X61055Y51297D01*
X61059Y51326D01*
X61063Y51364D01*
X61075Y51447D01*
X61105Y51538D01*
X61142Y51638D01*
X61167Y51684D01*
X61196Y51730D01*
X61229Y51776D01*
X61267Y51817D01*
X61271Y51821D01*
X61275Y51825D01*
X61287Y51838D01*
X61304Y51850D01*
X61329Y51867D01*
X61354Y51884D01*
X61387Y51904D01*
X61421Y51925D01*
X61462Y51942D01*
X61508Y51963D01*
X61558Y51979D01*
X61612Y51996D01*
X61670Y52008D01*
X61733Y52021D01*
X61799Y52025D01*
X61870Y52029D01*
X61903D01*
X61928Y52025D01*
X61957Y52021D01*
X61991Y52017D01*
X62070Y52004D01*
X62157Y51975D01*
X62257Y51938D01*
X62307Y51913D01*
X62353Y51884D01*
X62402Y51850D01*
X62448Y51813D01*
X62452Y51809D01*
X62457Y51805D01*
X62469Y51792D01*
X62486Y51771D01*
X62502Y51751D01*
X62523Y51722D01*
X62548Y51684D01*
X62573Y51647D01*
X62594Y51601D01*
X62619Y51547D01*
X62644Y51493D01*
X62665Y51426D01*
X62685Y51355D01*
X62702Y51280D01*
X62714Y51197D01*
X62723Y51110D01*
X63505D01*
Y51114D01*
Y51118D01*
X63501Y51143D01*
X63497Y51181D01*
X63488Y51235D01*
X63480Y51293D01*
X63463Y51368D01*
X63447Y51447D01*
X63422Y51534D01*
X63393Y51622D01*
X63359Y51717D01*
X63322Y51813D01*
X63272Y51909D01*
X63218Y52000D01*
X63160Y52092D01*
X63089Y52175D01*
X63010Y52254D01*
X63006Y52258D01*
X62989Y52271D01*
X62964Y52291D01*
X62931Y52316D01*
X62885Y52350D01*
X62831Y52383D01*
X62769Y52416D01*
X62698Y52458D01*
X62619Y52495D01*
X62536Y52529D01*
X62440Y52566D01*
X62336Y52595D01*
X62224Y52620D01*
X62107Y52641D01*
X61982Y52653D01*
X61853Y52658D01*
D02*
G37*
G36*
X54116D02*
X52514D01*
X54082D01*
X54045Y52653D01*
X53991Y52649D01*
X53929Y52645D01*
X53854Y52637D01*
X53775Y52624D01*
X53687Y52608D01*
X53596Y52583D01*
X53500Y52558D01*
X53400Y52524D01*
X53304Y52483D01*
X53209Y52437D01*
X53117Y52383D01*
X53030Y52316D01*
X52947Y52246D01*
X52943Y52241D01*
X52930Y52225D01*
X52909Y52204D01*
X52880Y52171D01*
X52851Y52133D01*
X52814Y52083D01*
X52776Y52025D01*
X52735Y51963D01*
X52697Y51892D01*
X52660Y51813D01*
X52622Y51730D01*
X52593Y51638D01*
X52564Y51543D01*
X52543Y51443D01*
X52531Y51335D01*
X52527Y51222D01*
Y51218D01*
Y51197D01*
Y51168D01*
X52531Y51131D01*
X52535Y51081D01*
X52543Y51027D01*
X52552Y50960D01*
X52564Y50894D01*
X52581Y50819D01*
X52601Y50740D01*
X52626Y50661D01*
X52656Y50577D01*
X52689Y50494D01*
X52730Y50407D01*
X52776Y50324D01*
X52830Y50245D01*
X52834Y50240D01*
X52847Y50224D01*
X52864Y50203D01*
X52893Y50170D01*
X52926Y50124D01*
X52972Y50074D01*
X53026Y50012D01*
X53088Y49945D01*
X53163Y49866D01*
X53246Y49783D01*
X53342Y49687D01*
X53450Y49587D01*
X53567Y49479D01*
X53700Y49359D01*
X53841Y49238D01*
X53995Y49105D01*
X53999D01*
X54003Y49097D01*
X54016Y49088D01*
X54032Y49076D01*
X54074Y49038D01*
X54128Y48992D01*
X54195Y48934D01*
X54270Y48872D01*
X54344Y48805D01*
X54428Y48735D01*
X54507Y48660D01*
X54586Y48589D01*
X54661Y48518D01*
X54727Y48456D01*
X54781Y48398D01*
X54827Y48348D01*
X54844Y48327D01*
X54856Y48310D01*
X54865Y48294D01*
X54869Y48281D01*
X52514D01*
Y47566D01*
X55884D01*
Y47620D01*
X55879Y47657D01*
X55875Y47703D01*
X55867Y47757D01*
X55859Y47815D01*
X55846Y47886D01*
X55834Y47957D01*
X55813Y48032D01*
X55792Y48111D01*
X55763Y48190D01*
X55730Y48273D01*
X55692Y48356D01*
X55651Y48435D01*
X55601Y48514D01*
X55597Y48518D01*
X55588Y48535D01*
X55568Y48556D01*
X55543Y48589D01*
X55514Y48631D01*
X55472Y48680D01*
X55422Y48735D01*
X55364Y48797D01*
X55301Y48868D01*
X55226Y48947D01*
X55139Y49030D01*
X55048Y49121D01*
X54944Y49213D01*
X54831Y49313D01*
X54711Y49421D01*
X54577Y49529D01*
X54573D01*
X54569Y49538D01*
X54544Y49554D01*
X54507Y49587D01*
X54457Y49629D01*
X54399Y49679D01*
X54332Y49737D01*
X54257Y49800D01*
X54178Y49870D01*
X54012Y50020D01*
X53845Y50174D01*
X53770Y50253D01*
X53696Y50328D01*
X53633Y50399D01*
X53579Y50465D01*
X53575Y50469D01*
X53567Y50482D01*
X53554Y50498D01*
X53537Y50528D01*
X53517Y50557D01*
X53496Y50598D01*
X53471Y50640D01*
X53446Y50690D01*
X53421Y50744D01*
X53396Y50806D01*
X53375Y50869D01*
X53354Y50935D01*
X53338Y51006D01*
X53325Y51081D01*
X53317Y51156D01*
X53313Y51235D01*
Y51239D01*
Y51251D01*
Y51272D01*
X53317Y51297D01*
X53321Y51326D01*
X53325Y51364D01*
X53338Y51447D01*
X53367Y51538D01*
X53404Y51638D01*
X53429Y51684D01*
X53458Y51730D01*
X53492Y51776D01*
X53529Y51817D01*
X53533Y51821D01*
X53537Y51825D01*
X53550Y51838D01*
X53567Y51850D01*
X53592Y51867D01*
X53616Y51884D01*
X53650Y51904D01*
X53683Y51925D01*
X53725Y51942D01*
X53770Y51963D01*
X53820Y51979D01*
X53874Y51996D01*
X53933Y52008D01*
X53995Y52021D01*
X54062Y52025D01*
X54132Y52029D01*
X54166D01*
X54191Y52025D01*
X54220Y52021D01*
X54253Y52017D01*
X54332Y52004D01*
X54419Y51975D01*
X54519Y51938D01*
X54569Y51913D01*
X54615Y51884D01*
X54665Y51850D01*
X54711Y51813D01*
X54715Y51809D01*
X54719Y51805D01*
X54731Y51792D01*
X54748Y51771D01*
X54765Y51751D01*
X54786Y51722D01*
X54810Y51684D01*
X54835Y51647D01*
X54856Y51601D01*
X54881Y51547D01*
X54906Y51493D01*
X54927Y51426D01*
X54948Y51355D01*
X54964Y51280D01*
X54977Y51197D01*
X54985Y51110D01*
X55767D01*
Y51114D01*
Y51118D01*
X55763Y51143D01*
X55759Y51181D01*
X55751Y51235D01*
X55742Y51293D01*
X55726Y51368D01*
X55709Y51447D01*
X55684Y51534D01*
X55655Y51622D01*
X55622Y51717D01*
X55584Y51813D01*
X55534Y51909D01*
X55480Y52000D01*
X55422Y52092D01*
X55351Y52175D01*
X55272Y52254D01*
X55268Y52258D01*
X55251Y52271D01*
X55226Y52291D01*
X55193Y52316D01*
X55147Y52350D01*
X55093Y52383D01*
X55031Y52416D01*
X54960Y52458D01*
X54881Y52495D01*
X54798Y52529D01*
X54702Y52566D01*
X54598Y52595D01*
X54486Y52620D01*
X54369Y52641D01*
X54245Y52653D01*
X54116Y52658D01*
D02*
G37*
G36*
X69162Y51310D02*
Y51231D01*
X68393D01*
Y50740D01*
X68389Y50748D01*
X68380Y50765D01*
X68364Y50794D01*
X68339Y50827D01*
X68310Y50873D01*
X68272Y50919D01*
X68231Y50973D01*
X68181Y51027D01*
X68122Y51077D01*
X68060Y51131D01*
X67989Y51177D01*
X67914Y51222D01*
X67831Y51256D01*
X67744Y51285D01*
X67648Y51301D01*
X67548Y51310D01*
X67494D01*
X67453Y51306D01*
X67399Y51301D01*
X67340Y51293D01*
X67270Y51285D01*
X67191Y51272D01*
Y50519D01*
X67199D01*
X67211Y50523D01*
X67228Y50528D01*
X67270Y50532D01*
X67328Y50540D01*
X67394Y50548D01*
X67474Y50552D01*
X67557Y50561D01*
X67665D01*
X67686Y50557D01*
X67719Y50552D01*
X67756Y50548D01*
X67798Y50536D01*
X67848Y50523D01*
X67902Y50503D01*
X67960Y50482D01*
X68018Y50449D01*
X68081Y50415D01*
X68147Y50370D01*
X68210Y50320D01*
X68272Y50257D01*
X68335Y50186D01*
X68393Y50107D01*
Y47566D01*
X67191D01*
X69162D01*
Y51310D01*
D02*
G37*
G36*
X78839Y50598D02*
D01*
D01*
D01*
D02*
G37*
G36*
X76904D02*
D01*
D01*
D01*
D02*
G37*
G36*
X74620Y52574D02*
X73851D01*
Y47566D01*
X74620D01*
Y52574D01*
D02*
G37*
G36*
X65631Y51310D02*
X65568D01*
X65535Y51306D01*
X65497Y51301D01*
X65452Y51297D01*
X65402Y51293D01*
X65352Y51285D01*
X65294Y51276D01*
X65169Y51251D01*
X65036Y51214D01*
X64898Y51168D01*
X64761Y51110D01*
X64628Y51035D01*
X64566Y50989D01*
X64503Y50944D01*
X64445Y50889D01*
X64391Y50835D01*
X64341Y50773D01*
X64295Y50706D01*
X64254Y50632D01*
X64220Y50552D01*
X64191Y50469D01*
X64166Y50382D01*
X64154Y50286D01*
X64145Y50182D01*
X64907D01*
Y50186D01*
X64911Y50203D01*
X64915Y50228D01*
X64923Y50261D01*
X64936Y50299D01*
X64952Y50340D01*
X64973Y50386D01*
X65002Y50432D01*
X65040Y50478D01*
X65090Y50523D01*
X65144Y50565D01*
X65210Y50602D01*
X65285Y50636D01*
X65373Y50661D01*
X65473Y50677D01*
X65589Y50682D01*
X65639D01*
X65664Y50677D01*
X65693D01*
X65760Y50669D01*
X65834Y50656D01*
X65913Y50636D01*
X65992Y50611D01*
X66067Y50577D01*
X66076Y50573D01*
X66097Y50557D01*
X66126Y50536D01*
X66159Y50503D01*
X66192Y50461D01*
X66221Y50411D01*
X66242Y50353D01*
X66246Y50320D01*
X66250Y50286D01*
Y50278D01*
X66246Y50257D01*
X66242Y50228D01*
X66234Y50191D01*
X66217Y50149D01*
X66192Y50107D01*
X66159Y50070D01*
X66113Y50037D01*
X66105Y50033D01*
X66097Y50028D01*
X66080Y50020D01*
X66063Y50012D01*
X66034Y50003D01*
X66005Y49991D01*
X65963Y49978D01*
X65918Y49962D01*
X65864Y49945D01*
X65801Y49924D01*
X65726Y49904D01*
X65643Y49879D01*
X65552Y49854D01*
X65448Y49829D01*
X65335Y49800D01*
X65327D01*
X65306Y49791D01*
X65273Y49783D01*
X65231Y49770D01*
X65177Y49758D01*
X65115Y49741D01*
X65044Y49720D01*
X64973Y49696D01*
X64815Y49641D01*
X64653Y49575D01*
X64574Y49542D01*
X64499Y49504D01*
X64428Y49467D01*
X64362Y49425D01*
X64358Y49421D01*
X64349Y49417D01*
X64333Y49400D01*
X64308Y49384D01*
X64283Y49359D01*
X64258Y49330D01*
X64224Y49292D01*
X64195Y49250D01*
X64166Y49200D01*
X64133Y49146D01*
X64108Y49084D01*
X64079Y49013D01*
X64058Y48938D01*
X64042Y48855D01*
X64033Y48764D01*
X64029Y48668D01*
Y48647D01*
X64033Y48618D01*
Y48581D01*
X64042Y48539D01*
X64050Y48489D01*
X64062Y48431D01*
X64079Y48368D01*
X64100Y48302D01*
X64129Y48235D01*
X64162Y48165D01*
X64200Y48094D01*
X64249Y48023D01*
X64303Y47952D01*
X64366Y47886D01*
X64437Y47819D01*
X64441Y47815D01*
X64453Y47807D01*
X64478Y47790D01*
X64512Y47769D01*
X64549Y47740D01*
X64599Y47715D01*
X64657Y47682D01*
X64724Y47653D01*
X64794Y47624D01*
X64878Y47591D01*
X64965Y47566D01*
X65061Y47541D01*
X65165Y47516D01*
X65273Y47499D01*
X65389Y47491D01*
X65514Y47487D01*
X64029D01*
X67099D01*
X65552D01*
X65581Y47491D01*
X65614D01*
X65656Y47495D01*
X65701Y47499D01*
X65751Y47507D01*
X65810Y47516D01*
X65868Y47524D01*
X65997Y47553D01*
X66134Y47595D01*
X66280Y47645D01*
X66354Y47678D01*
X66425Y47711D01*
X66496Y47753D01*
X66567Y47794D01*
X66633Y47844D01*
X66700Y47898D01*
X66762Y47957D01*
X66820Y48023D01*
X66874Y48090D01*
X66924Y48169D01*
X66970Y48248D01*
X67012Y48335D01*
X67045Y48431D01*
X67070Y48531D01*
X67087Y48639D01*
X67099Y48755D01*
X66334D01*
Y48747D01*
Y48726D01*
X66329Y48697D01*
X66321Y48656D01*
X66309Y48606D01*
X66288Y48552D01*
X66263Y48493D01*
X66230Y48435D01*
X66184Y48373D01*
X66130Y48314D01*
X66067Y48260D01*
X65988Y48210D01*
X65897Y48169D01*
X65789Y48140D01*
X65726Y48127D01*
X65664Y48119D01*
X65597Y48111D01*
X65489D01*
X65464Y48115D01*
X65431D01*
X65398Y48119D01*
X65319Y48127D01*
X65231Y48144D01*
X65140Y48169D01*
X65052Y48206D01*
X65015Y48227D01*
X64978Y48252D01*
X64973D01*
X64969Y48260D01*
X64948Y48277D01*
X64919Y48310D01*
X64886Y48352D01*
X64853Y48402D01*
X64824Y48464D01*
X64803Y48535D01*
X64794Y48572D01*
Y48610D01*
Y48614D01*
Y48618D01*
X64799Y48643D01*
X64803Y48676D01*
X64815Y48718D01*
X64836Y48764D01*
X64869Y48809D01*
X64915Y48851D01*
X64940Y48872D01*
X64973Y48888D01*
X64982Y48893D01*
X64994Y48897D01*
X65011Y48905D01*
X65032Y48913D01*
X65061Y48926D01*
X65098Y48938D01*
X65140Y48951D01*
X65190Y48968D01*
X65248Y48988D01*
X65310Y49009D01*
X65385Y49030D01*
X65468Y49051D01*
X65560Y49080D01*
X65664Y49105D01*
X65776Y49134D01*
X65785D01*
X65805Y49142D01*
X65834Y49151D01*
X65880Y49163D01*
X65930Y49176D01*
X65988Y49196D01*
X66055Y49217D01*
X66126Y49238D01*
X66280Y49292D01*
X66434Y49354D01*
X66508Y49388D01*
X66579Y49421D01*
X66646Y49458D01*
X66708Y49496D01*
X66712Y49500D01*
X66720Y49504D01*
X66737Y49517D01*
X66758Y49538D01*
X66779Y49558D01*
X66804Y49587D01*
X66833Y49625D01*
X66862Y49666D01*
X66891Y49712D01*
X66920Y49766D01*
X66945Y49825D01*
X66966Y49891D01*
X66987Y49966D01*
X67003Y50045D01*
X67012Y50132D01*
X67016Y50228D01*
Y50232D01*
Y50249D01*
X67012Y50274D01*
Y50307D01*
X67003Y50345D01*
X66995Y50394D01*
X66983Y50444D01*
X66970Y50503D01*
X66949Y50561D01*
X66924Y50623D01*
X66891Y50690D01*
X66858Y50752D01*
X66812Y50819D01*
X66762Y50881D01*
X66704Y50944D01*
X66637Y51002D01*
X66633Y51006D01*
X66621Y51014D01*
X66600Y51031D01*
X66567Y51052D01*
X66529Y51073D01*
X66483Y51098D01*
X66429Y51127D01*
X66371Y51156D01*
X66300Y51185D01*
X66225Y51214D01*
X66142Y51239D01*
X66051Y51260D01*
X65955Y51280D01*
X65855Y51297D01*
X65747Y51306D01*
X65631Y51310D01*
D02*
G37*
%LPD*%
G36*
X77636Y51231D02*
X77062D01*
Y50598D01*
X77636D01*
Y48635D01*
Y48631D01*
Y48622D01*
Y48601D01*
Y48581D01*
X77632Y48556D01*
Y48522D01*
X77628Y48456D01*
X77620Y48385D01*
X77607Y48319D01*
X77599Y48285D01*
X77591Y48260D01*
X77578Y48235D01*
X77566Y48219D01*
X77561Y48215D01*
X77553Y48206D01*
X77536Y48194D01*
X77512Y48181D01*
X77482Y48169D01*
X77449Y48156D01*
X77408Y48148D01*
X77362Y48144D01*
X77299D01*
X77258Y48148D01*
X77200Y48152D01*
X77137Y48156D01*
X77062Y48165D01*
X76979Y48173D01*
Y52108D01*
X77636D01*
Y51231D01*
D02*
G37*
G36*
X75702D02*
X75128D01*
Y50598D01*
X75702D01*
Y48635D01*
Y48631D01*
Y48622D01*
Y48601D01*
Y48581D01*
X75698Y48556D01*
Y48522D01*
X75694Y48456D01*
X75685Y48385D01*
X75673Y48319D01*
X75665Y48285D01*
X75656Y48260D01*
X75644Y48235D01*
X75631Y48219D01*
X75627Y48215D01*
X75619Y48206D01*
X75602Y48194D01*
X75577Y48181D01*
X75548Y48169D01*
X75515Y48156D01*
X75473Y48148D01*
X75427Y48144D01*
X75365D01*
X75323Y48148D01*
X75265Y48152D01*
X75203Y48156D01*
X75128Y48165D01*
X75045Y48173D01*
Y52108D01*
X75702D01*
Y51231D01*
D02*
G37*
M02*
