G04*
G04 #@! TF.GenerationSoftware,Altium Limited,Altium Designer,24.4.1 (13)*
G04*
G04 Layer_Color=16711935*
%FSLAX25Y25*%
%MOIN*%
G70*
G04*
G04 #@! TF.SameCoordinates,AA9B8025-BE10-49C8-B8BA-64AABDCBB2E5*
G04*
G04*
G04 #@! TF.FilePolarity,Positive*
G04*
G01*
G75*
%ADD18C,0.01000*%
D18*
X-984Y12874D02*
G03*
X4016Y7874I5000J0D01*
G01*
Y53150D02*
G03*
X-984Y48150I0J-5000D01*
G01*
X105512Y5000D02*
Y55020D01*
X22851Y4382D02*
X23578Y3020D01*
X21871Y5575D02*
X22851Y4382D01*
X20678Y6554D02*
X21871Y5575D01*
X19317Y7282D02*
X20678Y6554D01*
X17840Y7730D02*
X19317Y7282D01*
X16304Y7881D02*
X17840Y7730D01*
X22752Y56558D02*
X23281Y57087D01*
X105512Y57087D01*
X16205Y53058D02*
X17741Y53210D01*
X19218Y53658D01*
X21773Y55365D02*
X22752Y56558D01*
X20580Y54385D02*
X21773Y55365D01*
X19218Y53658D02*
X20580Y54385D01*
X105512Y2953D02*
Y57087D01*
X23578Y2953D02*
X105315Y2953D01*
X-984Y12874D02*
Y13780D01*
X4016Y7874D02*
X5906D01*
X16304D01*
X4016Y53150D02*
X5906D01*
X16205Y53058D01*
X-984Y13780D02*
X30512D01*
Y47244D01*
X-984D02*
X30512D01*
M02*
