G04*
G04 #@! TF.GenerationSoftware,Altium Limited,Altium Designer,24.4.1 (13)*
G04*
G04 Layer_Color=65535*
%FSLAX25Y25*%
%MOIN*%
G70*
G04*
G04 #@! TF.SameCoordinates,AA9B8025-BE10-49C8-B8BA-64AABDCBB2E5*
G04*
G04*
G04 #@! TF.FilePolarity,Positive*
G04*
G01*
G75*
%ADD10C,0.00394*%
%ADD11C,0.00600*%
%ADD12C,0.00787*%
G36*
X61411Y38645D02*
X62411D01*
Y37146D01*
X61411D01*
Y38645D01*
D02*
G37*
D10*
X59744Y38976D02*
Y44488D01*
Y38976D02*
X70768D01*
Y44488D01*
X59744D02*
X70768D01*
X65856Y40032D02*
Y43432D01*
X64656Y40032D02*
Y43432D01*
X74409Y38976D02*
Y44488D01*
Y38976D02*
X85433D01*
Y44488D01*
X74409D02*
X85433D01*
X80521Y40032D02*
Y43432D01*
X79321Y40032D02*
Y43432D01*
X47736Y16339D02*
Y21850D01*
Y16339D02*
X58760D01*
Y21850D01*
X47736D02*
X58760D01*
X53848Y17394D02*
Y20795D01*
X52648Y17394D02*
Y20795D01*
X47736Y23327D02*
Y28839D01*
Y23327D02*
X58760D01*
Y28839D01*
X47736D02*
X58760D01*
X53848Y24383D02*
Y27783D01*
X52648Y24383D02*
Y27783D01*
X47736Y30610D02*
Y36122D01*
Y30610D02*
X58760D01*
Y36122D01*
X47736D02*
X58760D01*
X53848Y31666D02*
Y35066D01*
X52648Y31666D02*
Y35066D01*
D11*
X65067Y36534D02*
X81390D01*
X65067Y15434D02*
X81390D01*
D12*
X35795Y49704D02*
X37631Y46949D01*
Y49704D02*
X35795Y46949D01*
X40386D02*
X38550D01*
X40386Y48786D01*
Y49245D01*
X39927Y49704D01*
X39009D01*
X38550Y49245D01*
X84581Y9251D02*
X86417Y6497D01*
Y9251D02*
X84581Y6497D01*
X87336D02*
X88254D01*
X87795D01*
Y9251D01*
X87336Y8792D01*
X70998Y14173D02*
Y11877D01*
X71457Y11418D01*
X72376D01*
X72835Y11877D01*
Y14173D01*
X73753Y11418D02*
X74671D01*
X74212D01*
Y14173D01*
X73753Y13714D01*
X44948Y18537D02*
X44489Y18078D01*
Y17159D01*
X44948Y16700D01*
X46784D01*
X47244Y17159D01*
Y18078D01*
X46784Y18537D01*
X44489Y21292D02*
Y19455D01*
X45866D01*
X45407Y20374D01*
Y20833D01*
X45866Y21292D01*
X46784D01*
X47244Y20833D01*
Y19914D01*
X46784Y19455D01*
X52789Y39206D02*
X52330Y39665D01*
X51411D01*
X50952Y39206D01*
Y37369D01*
X51411Y36910D01*
X52330D01*
X52789Y37369D01*
X55085Y36910D02*
Y39665D01*
X53707Y38287D01*
X55544D01*
X79265Y48162D02*
X78806Y48622D01*
X77888D01*
X77429Y48162D01*
Y46326D01*
X77888Y45867D01*
X78806D01*
X79265Y46326D01*
X80184Y48162D02*
X80643Y48622D01*
X81561D01*
X82020Y48162D01*
Y47703D01*
X81561Y47244D01*
X81102D01*
X81561D01*
X82020Y46785D01*
Y46326D01*
X81561Y45867D01*
X80643D01*
X80184Y46326D01*
X44751Y24836D02*
X44292Y24377D01*
Y23459D01*
X44751Y22999D01*
X46588D01*
X47047Y23459D01*
Y24377D01*
X46588Y24836D01*
X47047Y27591D02*
Y25754D01*
X45210Y27591D01*
X44751D01*
X44292Y27132D01*
Y26214D01*
X44751Y25754D01*
X65945Y48162D02*
X65486Y48622D01*
X64567D01*
X64108Y48162D01*
Y46326D01*
X64567Y45867D01*
X65486D01*
X65945Y46326D01*
X66863Y45867D02*
X67782D01*
X67322D01*
Y48622D01*
X66863Y48162D01*
M02*
